<svg xmlns="http://www.w3.org/2000/svg" viewBox="0 0 105.26 105.93"><title>Asset 3</title><g id="Layer_2" data-name="Layer 2"><g id="Layer_1-2" data-name="Layer 1"><path d="M67.45,104.38H37.78v-5a3.4,3.4,0,0,1,3.4-3.4H64.05a3.4,3.4,0,0,1,3.4,3.4Zm-26.67-3H64.45v-2a.4.4,0,0,0-.4-.4H41.18a.4.4,0,0,0-.4.4Z"/><path d="M57,85.18h-8.5a7.37,7.37,0,0,1-7.23-8.86l2.88-14a3.37,3.37,0,0,0-4-4l-14,2.87A7.37,7.37,0,0,1,17.36,54v-8.5a7.37,7.37,0,0,1,8.86-7.23L40,41.15a3.36,3.36,0,0,0,4-4L41.08,23.31a7.37,7.37,0,0,1,7.23-8.86h8.5A7.37,7.37,0,0,1,64,23.31L61.18,37.2a3.36,3.36,0,0,0,4,4L79,38.32a7.37,7.37,0,0,1,8.86,7.22V54A7.37,7.37,0,0,1,79,61.27L65.36,58.46a3.37,3.37,0,0,0-4,4l2.85,13.89A7.37,7.37,0,0,1,57,85.18ZM40.88,56.3a5.38,5.38,0,0,1,5.25,6.45l-2.88,14a5.37,5.37,0,0,0,5.27,6.45H57a5.35,5.35,0,0,0,5.26-6.45l-2.85-13.9a5.36,5.36,0,0,1,6.34-6.33l13.68,2.81A5.37,5.37,0,0,0,85.9,54v-8.5a5.37,5.37,0,0,0-6.45-5.26l-13.9,2.85a5.36,5.36,0,0,1-6.33-6.33l2.85-13.9a5.37,5.37,0,0,0-5.26-6.45h-8.5A5.37,5.37,0,0,0,43,22.9l2.85,13.88h0a5.36,5.36,0,0,1-6.35,6.33L25.81,40.25a5.38,5.38,0,0,0-6.45,5.27V54a5.38,5.38,0,0,0,6.46,5.26l14-2.87A5.76,5.76,0,0,1,40.88,56.3Z"/><path d="M52.63,58.7a9.18,9.18,0,1,1,9.18-9.18A9.19,9.19,0,0,1,52.63,58.7Zm0-17.36a8.18,8.18,0,1,0,8.18,8.18A8.19,8.19,0,0,0,52.63,41.34Z"/><ellipse cx="52.63" cy="49.52" rx="3.35" ry="3.07"/><path d="M94.23,105.93H11a11,11,0,0,1-11-11V11A11,11,0,0,1,11,0H94.23a11,11,0,0,1,11,11V94.89A11,11,0,0,1,94.23,105.93ZM11,4a7,7,0,0,0-7,7V94.89a7,7,0,0,0,7,7H94.23a7,7,0,0,0,7-7V11a7,7,0,0,0-7-7Z"/><path d="M52.63,91.23A41.42,41.42,0,1,1,94.05,49.82,41.46,41.46,0,0,1,52.63,91.23Zm0-79.83A38.42,38.42,0,1,0,91.05,49.82,38.46,38.46,0,0,0,52.63,11.4Z"/><rect x="92.55" y="91.65" width="11.75" height="5.75" rx="2.87" ry="2.87"/></g></g></svg>