<svg xmlns="http://www.w3.org/2000/svg" viewBox="0 0 82.2 82.91"><title>Asset 29</title><g id="Layer_2" data-name="Layer 2"><g id="Layer_1-2" data-name="Layer 1"><path d="M79.54,25.14h-7a4.2,4.2,0,0,0-8.2,0h-2V20.71H75.46a3.61,3.61,0,0,0,3.6-3.6V3.6A3.6,3.6,0,0,0,75.46,0h-27a3.6,3.6,0,0,0-3.6,3.6V17.11a3.6,3.6,0,0,0,3.6,3.6H58.66v4.43H56.91a4.2,4.2,0,0,0-8.2,0h-6a2.67,2.67,0,0,0,0,5.33h1.6a18.18,18.18,0,0,0,12.57,12v7.88A2.65,2.65,0,0,0,59.56,53h3.76A2.65,2.65,0,0,0,66,50.32v-7.8A18.21,18.21,0,0,0,78.85,30.47h.69a2.67,2.67,0,0,0,0-5.33ZM68.45,23a3,3,0,0,1,2.9,2.12h-5.8A3,3,0,0,1,68.45,23Zm-20-3.94a2,2,0,0,1-2-2V3.6a2,2,0,0,1,2-2h27a2,2,0,0,1,2,2V17.11a2,2,0,0,1-2,2H62.32V15.24a.63.63,0,0,1,.63-.63H67.7a.58.58,0,0,1,.58.58v2.17a1.08,1.08,0,0,0,1.08,1.08h.84a1.08,1.08,0,0,0,1.08-1.08V14A2.32,2.32,0,0,0,69,11.66H60.59a1.93,1.93,0,0,0-1.93,1.93v5.49Zm19.22-5.4H63a1.56,1.56,0,0,0-1.56,1.56v3.84h-1.8V13.59a1,1,0,0,1,1-1H69A1.4,1.4,0,0,1,70.35,14v3.38a.16.16,0,0,1-.15.16h-.84a.15.15,0,0,1-.15-.16V15.19A1.52,1.52,0,0,0,67.7,13.68Zm-8.11,7h1.8v4.43h-1.8ZM52.81,23a3,3,0,0,1,2.9,2.12h-5.8A3,3,0,0,1,52.81,23Zm11.54,27.3a1,1,0,0,1-1,1H59.56a1,1,0,0,1-1-1V42.8a18.12,18.12,0,0,0,5.81.05Zm-2.76-8.88a16.55,16.55,0,0,1-15.54-11H77.13A16.55,16.55,0,0,1,61.59,41.44Zm18-12.6H42.74a1,1,0,0,1,0-2.07h36.8a1,1,0,1,1,0,2.07Z" fill="#7e7e7e"/><path d="M8.17,24.82a2.42,2.42,0,1,0,2.27,3.23H17a.82.82,0,0,0,0-1.63h-6.6A2.41,2.41,0,0,0,8.17,24.82Z" fill="#7e7e7e"/><path d="M51.28,47.68h0a6.63,6.63,0,0,0-6.49-5.34H17.69a6.63,6.63,0,0,0-4.53,1.8V30.69a1.28,1.28,0,1,0-2.55,0v17H2.55V21.17h8.06v2a1.28,1.28,0,1,0,2.55,0V21.1a2.48,2.48,0,0,0-2.48-2.48H2.48A2.48,2.48,0,0,0,0,21.1V49a1.31,1.31,0,0,0,.31.83,1.72,1.72,0,0,0,.11.29L10.56,69.45a2.61,2.61,0,0,1,0,2.34L5.15,82.91H38.53l-1-1.87c0-.08-4-7.76-.22-11.55a21.43,21.43,0,0,1,4-2.87c4.5-2.72,10.06-6.08,10-16.39h0V49a6.35,6.35,0,0,0-.09-1.07ZM17.69,44.9H44.77a4.06,4.06,0,0,1,3.85,2.78H13.84A4.06,4.06,0,0,1,17.69,44.9ZM40.05,64.44a23,23,0,0,0-4.54,3.24c-3.77,3.78-2.22,9.68-1.06,12.68H9.25l3.64-7.45a4.58,4.58,0,0,0,.33-.87h9.59a1.28,1.28,0,1,0,0-2.56H13.27a4.74,4.74,0,0,0-.44-1.21l-9.44-18H48.83C48.88,59.11,44.39,61.81,40.05,64.44Z" fill="#7e7e7e"/><path d="M59.88,4.25h0a0,0,0,0,0,0,0h0L55,9l-4.79,4.83a0,0,0,0,0,0,0s0,0,0,0h0c.47-.33.89-.71,1.34-1.06s.87-.74,1.28-1.13.84-.77,1.25-1.15l1.22-1.19,1.19-1.22c.39-.41.78-.82,1.16-1.25s.75-.85,1.12-1.28S59.54,4.71,59.88,4.25Z" fill="#7e7e7e"/><path d="M50.56,10.67h0a14.94,14.94,0,0,0,1.74-1.31c.28-.23.54-.48.81-.72l.78-.74.75-.78c.23-.27.48-.53.71-.81a14.24,14.24,0,0,0,1.31-1.75h0a0,0,0,0,0,0,0,0,0,0,0,0,0,0l-3.07,3-3,3.07s0,0,0,0S50.55,10.68,50.56,10.67Z" fill="#7e7e7e"/><path d="M50.76,7.58h0a3.52,3.52,0,0,0,.92-.49c.14-.09.26-.2.4-.3l.36-.34c.12-.12.23-.24.34-.37s.21-.25.31-.39a3.89,3.89,0,0,0,.48-.93h0v0a0,0,0,0,0,0,0L52.12,6.12,50.73,7.55a0,0,0,0,0,0,0S50.74,7.59,50.76,7.58Z" fill="#7e7e7e"/></g></g></svg>