<svg xmlns="http://www.w3.org/2000/svg" viewBox="0 0 90.16 54.04"><title>Asset 24</title><g id="Layer_2" data-name="Layer 2"><g id="Layer_1-2" data-name="Layer 1"><g opacity="0.79"><path d="M87.89,45H76.05a13.69,13.69,0,0,0,4.06-5.57c.17-.44.45-.44.8-.44,1.13,0,2.25,0,3.38,0a5.9,5.9,0,0,0,5.61-4.67,15.36,15.36,0,0,0,0-5.41,5.78,5.78,0,0,0-5-4.85A14.78,14.78,0,0,0,82,24c-.8.06-1-.19-1-1,.06-1.59-.44-2.06-2-2.06-7,0-14,0-21,0-.79,0-1.89.36-2.31-.16s-.08-1.56-.14-2.36a.72.72,0,0,1,.61-.85,7,7,0,0,0,3.3-2.38,10.28,10.28,0,0,0-.09-12.59A6.64,6.64,0,0,0,54.1,0Q30.79,0,7.47,0a6.26,6.26,0,0,0-3,.81A9.35,9.35,0,0,0,.07,10c.44,3.54,2,6.36,5.54,7.66.38.14.43.37.42.71,0,.75,0,1.5,0,2.25,0,7.85,0,15.7,0,23.54,0,.71-.16.91-.86.86-1-.06-2,0-3,0C.39,45-.19,45.7.07,47.46A7.52,7.52,0,0,0,7.73,54H82.4A7.48,7.48,0,0,0,90,47.52C90.3,45.71,89.73,45,87.89,45ZM81.72,27c.74.05,1.49,0,2.24,0a3,3,0,0,1,3.11,3.13c0,.46,0,.93,0,1.4.28,3.36-1.09,4.71-4.48,4.49-1.53-.1-1.53,0-1.52-1.53,0-2.28,0-4.55,0-6.83C81.05,27.17,81.17,27,81.72,27ZM64.56,24c4.25,0,8.5,0,12.75,0,.6,0,.78.14.77.76,0,3.25,0,6.5,0,9.75A10.46,10.46,0,0,1,67.6,45a49.17,49.17,0,0,1-7.77-.16,10.33,10.33,0,0,1-8.73-9.6c-.14-3.56,0-7.12-.06-10.69,0-.69.4-.54.78-.55ZM14.45,5.42A4.29,4.29,0,0,1,18.55,3c5.84,0,11.69,0,17.53,0S47.77,3,53.61,3a4.2,4.2,0,0,1,3.93,2.25,7.25,7.25,0,0,1,0,7.49A4.13,4.13,0,0,1,54,15a1.45,1.45,0,0,0-1.47,1.6c0,1.25,0,2.5,0,3.75,0,.55-.17.68-.69.65-.75,0-1.5,0-2.25,0a1.46,1.46,0,0,0-1.57,1.59c0,4.25-.1,8.5,0,12.75a12.72,12.72,0,0,0,3.95,8.75c.21.21.6.37.48.73S52,45,51.71,45c-10.44,0-20.88,0-31.31,0-.79,0-.88-.27-.88-.94q0-13.5,0-27c0-1.55-.34-1.92-1.83-2.11a4.15,4.15,0,0,1-3.21-2.32A7.23,7.23,0,0,1,14.45,5.42Zm-10,8a7.38,7.38,0,0,1,0-8.88A4,4,0,0,1,7.79,3c1.49,0,3,0,4.63,0a10.29,10.29,0,0,0-1.31,9.42,7.75,7.75,0,0,0,4.95,5.24c.41.14.48.36.48.76q0,13,0,26c0,.56-.17.66-.68.66-2,0-4,0-6,0-.73,0-.85-.21-.85-.88q0-13.55,0-27.1C9,15.54,8.7,15.19,7.16,15A4.05,4.05,0,0,1,4.49,13.42ZM82.87,51A7.79,7.79,0,0,1,82,51H8c-2.38,0-3.95-1-4.67-2.94H86.8A4.58,4.58,0,0,1,82.87,51Z" fill="#303030"/><path d="M66.17,14.45a3.42,3.42,0,0,0-.52,2.23A1.38,1.38,0,0,0,66.81,18a1.18,1.18,0,0,0,1.5-.65c.34-1.25,1.21-2.33,1.17-3.64a3.64,3.64,0,0,0-.51-2.2,1.61,1.61,0,0,1,0-1.91,3.52,3.52,0,0,0,.53-2.05A1.46,1.46,0,0,0,68.12,6,1.42,1.42,0,0,0,66.56,7.2a3.88,3.88,0,0,1-.33,1.15,4,4,0,0,0,0,4.26A1.63,1.63,0,0,1,66.17,14.45Z" fill="#303030"/><path d="M75.21,14.38a3.35,3.35,0,0,0-.56,1.76c0,1.08.45,1.75,1.28,1.86a1.51,1.51,0,0,0,1.67-1.39,3.35,3.35,0,0,1,.32-1,4.1,4.1,0,0,0,0-4.26,1.55,1.55,0,0,1,0-1.75,3.57,3.57,0,0,0,.56-2,1.49,1.49,0,1,0-2.95-.37,3.06,3.06,0,0,1-.28,1,4.15,4.15,0,0,0,0,4.43A1.48,1.48,0,0,1,75.21,14.38Z" fill="#303030"/><path d="M27.48,32.57a1.49,1.49,0,0,0,2.24-.12Q37.1,25.1,44.45,17.73a1.78,1.78,0,0,0,.6-1.29,1.52,1.52,0,0,0-2.66-.9Q35,22.94,27.61,30.34A1.48,1.48,0,0,0,27.48,32.57Z" fill="#303030"/><path d="M28.3,21.88q2.82-2.8,5.62-5.63A1.78,1.78,0,0,0,34.54,15a1.46,1.46,0,0,0-.92-1.34,1.5,1.5,0,0,0-1.77.44l-5.69,5.69a1.52,1.52,0,1,0,2.14,2.11Z" fill="#303030"/><path d="M43.57,27a1.64,1.64,0,0,0-1.2.55c-1.92,1.92-3.85,3.83-5.75,5.77a1.49,1.49,0,0,0-.14,2.23,1.5,1.5,0,0,0,2.24-.11c.81-.77,1.59-1.58,2.39-2.38,1.14-1.14,2.3-2.28,3.44-3.44a1.44,1.44,0,0,0,.36-1.71A1.46,1.46,0,0,0,43.57,27Z" fill="#303030"/></g></g></g></svg>