<svg xmlns="http://www.w3.org/2000/svg" viewBox="0 0 139.15 92.77"><title>Asset 19</title><g id="Layer_2" data-name="Layer 2"><g id="Layer_1-2" data-name="Layer 1"><path d="M65.42,40.77c2.22-3.13-4.77-16.23-6.23-18.89l8,2.19a.37.37,0,0,0,.18,0l12.46-2.46a.39.39,0,0,0,.31-.45.4.4,0,0,0-.46-.31L67.29,23.3,61.7,21.77l2.25,0a.44.44,0,0,0,.22-.07l10.61-7.82a.39.39,0,1,0-.46-.62L63.81,21,59.64,21l2.11-2.12a.38.38,0,1,0-.54-.54l-2.14,2.14.06-4.2L66.88,5.8a.39.39,0,0,0-.63-.46L58.44,16a.42.42,0,0,0-.08.22l0,2.25-1.54-5.59L59.23.46a.38.38,0,0,0-.3-.45.39.39,0,0,0-.46.3L56,12.78A.48.48,0,0,0,56,13l2.2,8c-2.67-1.46-15.77-8.45-18.9-6.24a2,2,0,0,0-.67,2.1.39.39,0,0,0,.06.15,15.53,15.53,0,0,0,1.67,2,14.71,14.71,0,0,0,6.12,3.64,13.61,13.61,0,0,0,6.67.28,6.91,6.91,0,0,1,3.58-.05l-.65.65a1.52,1.52,0,0,0-.77.23l-5.94,1a.33.33,0,0,0-.21.11l-2.43,2.42h-10a.39.39,0,0,0-.38.39.37.37,0,0,0,.11.27.4.4,0,0,0,.27.12H46.91a.36.36,0,0,0,.27-.12l2.46-2.45,4.17-.72-.25.19a67.66,67.66,0,0,0-8.74,8.74c-1.57,2-1.66,2.53-1.29,2.91s1,.28,2.91-1.29A59.07,59.07,0,0,0,51,31.13a59.07,59.07,0,0,0,4.17-4.57l.19-.24-.71,4.14L52.2,32.91a.41.41,0,0,0-.11.28V43.32a.37.37,0,0,0,.11.27.4.4,0,0,0,.27.12.39.39,0,0,0,.39-.39v-10l2.43-2.43a.43.43,0,0,0,.11-.21l1-5.91a1.48,1.48,0,0,0,.23-.78l.66-.66a7.09,7.09,0,0,1-.05,3.57,13.61,13.61,0,0,0,.28,6.67,14.57,14.57,0,0,0,3.64,6.11,14,14,0,0,0,2,1.67.33.33,0,0,0,.16.07A2,2,0,0,0,65.42,40.77Zm-8.3-18.63a7.23,7.23,0,0,0-4.1,0,12.91,12.91,0,0,1-6.29-.26,13.86,13.86,0,0,1-7.34-5.27c-.12-.9.25-1.16.38-1.25,2.37-1.67,13.35,3.7,17.95,6.21ZM44.76,35.36a47.57,47.57,0,0,1,4.92-5.56,47.57,47.57,0,0,1,5.56-4.92,47.28,47.28,0,0,1-4.92,5.57A47.2,47.2,0,0,1,44.76,35.36ZM63.54,40.7a13.81,13.81,0,0,1-5.26-7.33A12.8,12.8,0,0,1,58,27.08,7.34,7.34,0,0,0,58,23l.59-.6c2.52,4.6,7.89,15.58,6.21,18C64.71,40.45,64.44,40.83,63.54,40.7Z" fill="#606060"/><path d="M92.26,87.3l.13-5.23,2.46-5.43L93.17,76h0A8.61,8.61,0,0,0,95,72.39h0l2.2,2.19,6.88-1.47a.38.38,0,1,0-.16-.75l-6.47,1.38-2.27-2.27c0-.19,0-.39,0-.58h0c2.13-1.25,2.94-3.15,2.13-5h0a4.57,4.57,0,0,0,.57-.76h0a2.4,2.4,0,0,0,.33-4.77h0a5.27,5.27,0,0,0-.79-1.27,3.66,3.66,0,0,1,4.71.4.39.39,0,1,0,.55-.55A4.43,4.43,0,0,0,98,58a4.45,4.45,0,0,0-1-4.73.37.37,0,0,0-.54,0,.38.38,0,0,0,0,.54,3.68,3.68,0,0,1,.4,4.71,5.66,5.66,0,0,0-1.25-.78h0a2.4,2.4,0,0,0-4.77.3,5.41,5.41,0,0,0-.79.59h0c-1.9-.85-4,0-5.16,2.05h0a3.88,3.88,0,0,0-.48,0l-2.25-2.25,1.38-6.48a.39.39,0,0,0-.3-.46.39.39,0,0,0-.46.3l-1.47,6.88,2.18,2.19h0a8.73,8.73,0,0,0-3.58,1.8h0L79.2,61l-5.43,2.47-5.23.12a.38.38,0,0,0-.38.39.41.41,0,0,0,.11.27.44.44,0,0,0,.29.11L74,64.22,78.78,62l.46,1.18-5.53,5.53-1.08-1.28-6.51,3.69-2.65,0a.38.38,0,0,0-.39.38.39.39,0,0,0,.11.28.37.37,0,0,0,.27.11l2.86,0,6.13-3.47.71.84a8.9,8.9,0,0,0,0,12.51l.82.82a8.73,8.73,0,0,0,3,2h0l0,0h0a8.89,8.89,0,0,0,9.44-2h0l.85.72-3.47,6.13,0,2.86a.37.37,0,0,0,.11.27.4.4,0,0,0,.28.12.4.4,0,0,0,.38-.39l0-2.66,3.69-6.5-1.29-1.1,5.52-5.53,1.2.47L91.62,81.9l-.13,5.39a.39.39,0,0,0,.11.28.37.37,0,0,0,.27.11A.38.38,0,0,0,92.26,87.3Zm7.26-24.42a1.63,1.63,0,0,1-1.2,1.43,5.13,5.13,0,0,0,.21-3.05A1.63,1.63,0,0,1,99.52,62.88Zm-3.18-3.8a2.91,2.91,0,0,1,.27.24l.24.26a4.42,4.42,0,0,1,0,5.74l-3-2.33a6,6,0,0,1-1.18-1.19l-2-2.71A4.41,4.41,0,0,1,96.34,59.08Zm-3.26-2.64a1.61,1.61,0,0,1,1.6,1,5.23,5.23,0,0,0-3,.2A1.62,1.62,0,0,1,93.08,56.44Zm-3.25,2.91L92,62.27a7.65,7.65,0,0,0,.65.74,6.48,6.48,0,0,0,.68.6l3.23,2.47c.81,1.61-.07,3-1.34,3.88h0A8.85,8.85,0,0,0,92.64,64l-.82-.82a8.86,8.86,0,0,0-6-2.59A3.1,3.1,0,0,1,89.83,59.35ZM73.76,69.79l6-6.05a8.07,8.07,0,0,1,4.41-2.27h0l.12,0a8,8,0,0,1,6.92,2.28l.22.21-14.4,14.4a3.68,3.68,0,0,1-5.19,0h0A8.08,8.08,0,0,1,73.76,69.79Zm2.43,13.53h0a7.87,7.87,0,0,1-1.6-1.25l-.82-.82a8,8,0,0,1-1.18-1.49h0a4.5,4.5,0,0,0,3.51.14,4.44,4.44,0,0,0,.1,3.43ZM86,82.07a8.08,8.08,0,0,1-8.53,1.87,3.66,3.66,0,0,1,.12-5L92,64.5l.06.06a8.11,8.11,0,0,1,0,11.46Z" fill="#606060"/><path d="M112.84,35.27a.39.39,0,0,0-.55-.54c-.83.83-.93,1.71-.27,2.37l.72.73c.66.65,1.55.55,2.38-.28a.38.38,0,0,0,0-.54.39.39,0,0,0-.55,0c-.78.78-1.14.41-1.28.27l-.73-.72C112.43,36.42,112.06,36.05,112.84,35.27Z" fill="#606060"/><path d="M125.91,42.43l-2.29-5.17a1.36,1.36,0,0,1-.05-1l.67-2a1.18,1.18,0,0,0-.67-1.46l-1.52-.64.8-.8h3.67a1.25,1.25,0,0,0,.88-.36l.77-.77a.28.28,0,0,1,.3-.06L132,31.42a.39.39,0,1,0,.26-.73l-3.53-1.24a1.06,1.06,0,0,0-1.11.25l-.76.76a.49.49,0,0,1-.34.14h-3.4a2.26,2.26,0,0,1,.83-1.28,1.84,1.84,0,0,0,2.94-.93l.67-2.49,2,1.08a5.41,5.41,0,0,0,2.6.67h6.61a.39.39,0,1,0,0-.77h-6.61a4.71,4.71,0,0,1-2.23-.57l-2.15-1.18.23-.82a1.81,1.81,0,0,0-.47-1.77h0a1.84,1.84,0,0,0-1.76-.48l-.83.22-1.14-2.09a4.63,4.63,0,0,1-.57-2.24v-6.6a.39.39,0,0,0-.78,0v6.6a5.42,5.42,0,0,0,.67,2.61l1,1.92-2.51.66a1.83,1.83,0,0,0-1.05,2.81,2.3,2.3,0,0,1-1.3.85v-3.4a.52.52,0,0,1,.14-.34l.77-.77a1.06,1.06,0,0,0,.25-1.1l-1.25-3.53a.39.39,0,0,0-.49-.24.37.37,0,0,0-.23.49l1.24,3.53a.3.3,0,0,1-.07.31l-.76.76a1.3,1.3,0,0,0-.37.89v3.66l-.8.8-.63-1.52a1.19,1.19,0,0,0-1.46-.66l-2,.67a1.36,1.36,0,0,1-1-.05L107.47,24a.39.39,0,0,0-.51.19.4.4,0,0,0,.08.43.5.5,0,0,0,.12.08l5.18,2.3a2.16,2.16,0,0,0,1.54.07l2-.67a.42.42,0,0,1,.5.23l.85,2.05h0c.62,1.45.1,2.82-.77,3.19a1.55,1.55,0,0,1-1.46-.24,1.93,1.93,0,0,0-2.46.21l-.63.63-1.5-1.14a.73.73,0,0,0-.62-.14.75.75,0,0,0-.5.38l-2.37,4.48a.7.7,0,0,1-.35.33l-7.09,3.14a.39.39,0,0,0-.19.51.25.25,0,0,0,.08.12.4.4,0,0,0,.43.08l7.08-3.14a1.53,1.53,0,0,0,.72-.68L110,32,111.37,33,110,34.44a2.34,2.34,0,0,0,0,3.3l2.2,2.2a2.34,2.34,0,0,0,3.3,0l1.4-1.41,1.09,1.4-4.48,2.36a1.58,1.58,0,0,0-.67.73l-3.14,7.08a.38.38,0,0,0,.08.43l.11.08a.38.38,0,0,0,.51-.2l3.14-7.08a.75.75,0,0,1,.33-.35l4.48-2.37a.75.75,0,0,0,.39-.51.74.74,0,0,0-.14-.62L117.42,38l.64-.64a1.93,1.93,0,0,0,.21-2.45,1.57,1.57,0,0,1-.24-1.47,1.75,1.75,0,0,1,1.18-.94,3.13,3.13,0,0,1,2,.17h0l2,.86a.4.4,0,0,1,.23.5l-.66,2a2.13,2.13,0,0,0,.07,1.55l2.3,5.18a.21.21,0,0,0,.08.11.36.36,0,0,0,.42.08A.38.38,0,0,0,125.91,42.43Zm-.52-13.5a1.06,1.06,0,0,1-1-.27l-.22-.23,2-2,.41.4-.36,1.32A1,1,0,0,1,125.39,28.93ZM126,22.8a1,1,0,0,1,1,.28h0a1.06,1.06,0,0,1,.27,1l-.52,1.9-.11-.11a.74.74,0,0,0-1.05,0l-2,2-1.44-1.44,2-2a.74.74,0,0,0,0-1.05l-.1-.1Zm-4.87,1.83a1.05,1.05,0,0,1,.76-.75l1.31-.35.4.41-2,2-.24-.24A1.06,1.06,0,0,1,121.09,24.63ZM119,31.75a2.55,2.55,0,0,0-1.67,1.38,2.35,2.35,0,0,0,.3,2.19,1.17,1.17,0,0,1-.11,1.49l-2.59,2.58a1.55,1.55,0,0,1-2.2,0l-2.21-2.2a1.56,1.56,0,0,1,0-2.21l2.59-2.58a1.17,1.17,0,0,1,1.49-.12,2.32,2.32,0,0,0,2.19.31,3.07,3.07,0,0,0,1.27-4l1-1a3,3,0,0,0,2-1.09l2.26,2.27a3,3,0,0,0-1.08,2l-1,1A3.84,3.84,0,0,0,119,31.75Z" fill="#606060"/><path d="M21.56,61l-2.19-.48a.36.36,0,0,0-.35.11l-8.5,8.49a.39.39,0,0,0,.55.55l8.34-8.35,2,.43a.38.38,0,0,0,.46-.29A.38.38,0,0,0,21.56,61Z" fill="#606060"/><path d="M23.85,63.41a.39.39,0,0,0-.29.46l.43,2L15.64,74.2a.38.38,0,0,0,0,.54.39.39,0,0,0,.55,0l8.5-8.49a.4.4,0,0,0,.1-.36l-.48-2.18A.39.39,0,0,0,23.85,63.41Z" fill="#606060"/><path d="M40.82,66.3c1.12-2.39,1.17-4.37.14-5.91-2.11-3.13-8.06-3.32-9.86-3.3A2.4,2.4,0,0,0,28.18,54c0-2-.28-7.63-3.31-9.66-1.53-1-3.52-1-5.9.13-9.51,4.45-11.1,17-11.11,17.14A.41.41,0,0,0,8,61.9.38.38,0,0,0,8.2,62a.4.4,0,0,0,.43-.34c0-.12,1.56-12.26,10.67-16.53,2.12-1,3.85-1.06,5.14-.19,3,2,3,8.5,2.95,9.55l-1.3,1.3a3.18,3.18,0,0,0-3.43.48,2.7,2.7,0,0,0-.76,1.87l-2.56-4.53,4.72-2.77a.38.38,0,0,0,.16-.48l-1.56-3.63a.38.38,0,0,0-.51-.2.39.39,0,0,0-.2.5l1.42,3.32-4.75,2.79a.38.38,0,0,0-.14.52l3.08,5.44-6.2-2a.45.45,0,0,0-.23,0l-4.46,1.45a.39.39,0,0,0-.24.49.38.38,0,0,0,.09.15.4.4,0,0,0,.39.1l4.34-1.42,2.72.88-6,6.1L8.61,63.59a.39.39,0,0,0-.46.15l-4,6.07L.25,71.27a.4.4,0,0,0-.23.5.42.42,0,0,0,.09.14A.38.38,0,0,0,.52,72l4-1.5a.45.45,0,0,0,.19-.15l3.89-5.91,2.77,1L8.06,68.9a3.9,3.9,0,0,0-1,1.58,3.21,3.21,0,0,0,.37,2.66,3.26,3.26,0,0,0,.46.58,3.42,3.42,0,0,0,1.92,1l.66.09,0,.43a3.41,3.41,0,0,0,1,2.11,2.18,2.18,0,0,0,.28.25,3.15,3.15,0,0,0,2.46.68,4.14,4.14,0,0,0,2.3-1.15l3.22-3.22,1.05,2.77-5.92,3.89a.36.36,0,0,0-.15.19l-1.5,4a.37.37,0,0,0,.09.41.34.34,0,0,0,.14.09A.38.38,0,0,0,14,85l1.46-3.91,6.07-4a.39.39,0,0,0,.15-.46l-1.28-3.38,6-6,.06-.07L27.37,70,26,74.35a.37.37,0,0,0,.09.39.44.44,0,0,0,.16.1.39.39,0,0,0,.48-.25l1.45-4.45a.33.33,0,0,0,0-.24l-2-6.19,5.43,3.08a.4.4,0,0,0,.53-.14l2.78-4.76,3.32,1.42a.38.38,0,0,0,.51-.2.39.39,0,0,0-.21-.51l-3.63-1.55a.37.37,0,0,0-.48.16l-2.77,4.72-4.78-2.71a2.7,2.7,0,0,0,2-.76,1.86,1.86,0,0,0,.33-.41l0,0a3.41,3.41,0,0,0,.13-3l1.18-1.18a.17.17,0,0,0,.12,0c.08,0,7.5-.33,9.7,3,.86,1.3.8,3-.2,5.15-4.26,9.11-16.41,10.65-16.53,10.67a.39.39,0,0,0-.34.43.42.42,0,0,0,.11.22.39.39,0,0,0,.32.11C23.81,77.39,36.37,75.8,40.82,66.3ZM10,73.91a2.6,2.6,0,0,1-1.84-1.18,2.41,2.41,0,0,1-.28-2,3.09,3.09,0,0,1,.77-1.27l10-10.23,3.55.91,1.1,1.38L10.74,74ZM16,76.54a3.32,3.32,0,0,1-1.86.94A2.44,2.44,0,0,1,12.29,77a2.64,2.64,0,0,1-1-1.82h0l-.05-.56L23.8,62.05l1.25,1,.66,3.83Zm8-15.42c-1.41-1.4-1.76-3.33-.8-4.3l.15-.12a13.58,13.58,0,0,1,5.07,5.08l-.12.14C27.33,62.88,25.4,62.53,24,61.12Zm4.8-.21a14.35,14.35,0,0,0-4.56-4.59,4,4,0,0,1,3.26,1.3A4,4,0,0,1,28.8,60.91Zm-.75-3.84a5.84,5.84,0,0,0-1.22-.92l1.22-1.22a1.54,1.54,0,0,1,2.14,2.14L29,58.29A5.84,5.84,0,0,0,28.05,57.07Z" fill="#606060"/></g></g></svg>