<svg xmlns="http://www.w3.org/2000/svg" viewBox="0 0 60.71 56.52"><title>Asset 8</title><g id="Layer_2" data-name="Layer 2"><g id="Layer_1-2" data-name="Layer 1"><path d="M3,23.8H52.45a5,5,0,0,0,.77,0,1.5,1.5,0,0,0,1.42-1.53,1.44,1.44,0,0,0-.48-1,1.57,1.57,0,0,0-1.07-.42h-50V13.42A4.19,4.19,0,0,1,7,9a3.11,3.11,0,0,1,.61,0h2.91a1.51,1.51,0,1,0,0-3A32.39,32.39,0,0,0,6.29,6,7,7,0,0,0,0,13.23V48.82a9.18,9.18,0,0,0,.18,2.09,7,7,0,0,0,2.5,4,7.22,7.22,0,0,0,4.52,1.63H53.56a7.1,7.1,0,0,0,7.15-7.07V13.11a7.17,7.17,0,0,0-7.17-7.19h-8V1.45a1.43,1.43,0,0,0-.48-1A1.57,1.57,0,0,0,44,0a1.53,1.53,0,0,0-1.53,1.45,2,2,0,0,0,0,.35V13.08a1.58,1.58,0,0,0,1.11,1.74,1.53,1.53,0,0,0,1.91-1,1.91,1.91,0,0,0,.06-.58V9h7.87a4.19,4.19,0,0,1,4.18,4.19v36a4.18,4.18,0,0,1-3.93,4.42,3.37,3.37,0,0,1-.55,0H7.48a4.18,4.18,0,0,1-4.42-3.94,4,4,0,0,1,0-.49V23.82Z" fill="#00fff8"/><path d="M18.26,8.94H37.69c1.09,0,1.76-.57,1.78-1.49s-.69-1.52-1.8-1.52H18.26V1.57A1.53,1.53,0,0,0,16.77,0h0A1.55,1.55,0,0,0,15.2,1.55V13.21a1.58,1.58,0,0,0,1.47,1.67h.08a1.55,1.55,0,0,0,1.56-1.54s0-.07,0-.11V9.67Z" fill="#00fff8"/><path d="M41.73,44.65a2.27,2.27,0,0,0,.67,1.57,2.36,2.36,0,0,0,1.59.65,2.06,2.06,0,0,0,.88-.17,1.93,1.93,0,0,0,.75-.48,2.05,2.05,0,0,0,.48-.75,1.7,1.7,0,0,0,.17-.86,1.89,1.89,0,0,0-.17-.84,2.06,2.06,0,0,0-.48-.73,2.32,2.32,0,0,0-.73-.46,2.1,2.1,0,0,0-.86-.17,2.3,2.3,0,0,0-.9.15,3,3,0,0,0-.73.48,2.19,2.19,0,0,0-.67,1.61Z" fill="#00fff8"/><path d="M41.73,32.74a2.27,2.27,0,0,0,.67,1.57,2.37,2.37,0,0,0,.73.48,2.11,2.11,0,0,0,.86.15,2.3,2.3,0,0,0,.9-.15,2.42,2.42,0,0,0,1.17-1.29,2.14,2.14,0,0,0,.15-.86,2.25,2.25,0,0,0-.67-1.57,2.27,2.27,0,0,0-3.69.75A2.41,2.41,0,0,0,41.73,32.74Z" fill="#00fff8"/><path d="M30.38,34.94a2.06,2.06,0,0,0,.88-.17,1.94,1.94,0,0,0,.73-.5,2.06,2.06,0,0,0,.48-.73,1.91,1.91,0,0,0,.15-.88,2.17,2.17,0,0,0-.69-1.55,2.34,2.34,0,0,0-1.59-.63,2.08,2.08,0,0,0-.88.19,1.94,1.94,0,0,0-.73.5,2.28,2.28,0,0,0-.65,1.61,2.22,2.22,0,0,0,2.3,2.16Z" fill="#00fff8"/><path d="M14.43,32.76a1.88,1.88,0,0,0,.19.84,1.83,1.83,0,0,0,.48.71,2.14,2.14,0,0,0,.75.48,2.36,2.36,0,0,0,.9.17,2.42,2.42,0,0,0,.88-.17,2.71,2.71,0,0,0,.76-.5,2.25,2.25,0,0,0,.46-.79,2,2,0,0,0,.14-.88,2.07,2.07,0,0,0-.67-1.55,2.28,2.28,0,0,0-1.57-.59,2.42,2.42,0,0,0-.88.17,2.52,2.52,0,0,0-.75.5,2.41,2.41,0,0,0-.65,1.61Z" fill="#00fff8"/><path d="M30.4,42.39a2.35,2.35,0,0,0-1.61.61,2.23,2.23,0,0,0-.71,1.55,2.21,2.21,0,0,0,.15.88,2.06,2.06,0,0,0,.48.73,2.12,2.12,0,0,0,.73.52,2.08,2.08,0,0,0,.88.19,2.3,2.3,0,0,0,1.61-.63,2.25,2.25,0,0,0,.69-1.55,1.57,1.57,0,0,0-.15-.85,2,2,0,0,0-.46-.76,2.43,2.43,0,0,0-.73-.5A2.21,2.21,0,0,0,30.4,42.39Z" fill="#00fff8"/><path d="M14.43,44.63a2.29,2.29,0,0,0,2.24,2.24,2.42,2.42,0,0,0,.88-.17,2.1,2.1,0,0,0,.75-.5,2.6,2.6,0,0,0,.55-.73,2.32,2.32,0,0,0,0-1.72,2.66,2.66,0,0,0-.51-.73,2.19,2.19,0,0,0-.75-.48,2.4,2.4,0,0,0-.84-.15,2.12,2.12,0,0,0-1.59.67,2.41,2.41,0,0,0-.48.71A2.37,2.37,0,0,0,14.43,44.63Z" fill="#00fff8"/></g></g></svg>