<svg id="Layer_1" data-name="Layer 1" xmlns="http://www.w3.org/2000/svg" viewBox="0 0 134.7 134.7"><title>call</title><g id="Page-1"><g id="Icons-Communication"><g id="phone"><path id="Shape" d="M31.6,63C42.1,84,60,101.2,81,112.4L97.5,95.9c2.2-2.2,5.2-3,7.5-1.5a77.88,77.88,0,0,0,26.9,4.5,7.09,7.09,0,0,1,7.5,7.5v25.4a7.09,7.09,0,0,1-7.5,7.5A127,127,0,0,1,4.7,12.1a7.09,7.09,0,0,1,7.5-7.5H38.4a7.09,7.09,0,0,1,7.5,7.5A83.88,83.88,0,0,0,50.4,39c.7,2.2,0,5.2-1.5,7.5L31.6,63Z" transform="translate(-4.7 -4.6)"/></g></g></g></svg>