<svg xmlns="http://www.w3.org/2000/svg" viewBox="0 0 18.26 13.7"><title>Asset 4</title><g id="Layer_2" data-name="Layer 2"><g id="Layer_1-2" data-name="Layer 1"><path d="M16.68,13.7H1.59A1.6,1.6,0,0,1,0,12.09H0V3.22A1.6,1.6,0,0,1,1.59,1.61H2A.8.8,0,0,1,2.78.8h.79a.82.82,0,0,1,.8.81h.77a1.46,1.46,0,0,0,.79-.4l.82-.8A1.1,1.1,0,0,1,7.54,0h3.18a1,1,0,0,1,.79.41l.8.8a1.49,1.49,0,0,0,.79.4h3.58a1.6,1.6,0,0,1,1.58,1.61v8.87a1.6,1.6,0,0,1-1.58,1.61Zm.79-10.48a.79.79,0,0,0-.79-.8H13a2.23,2.23,0,0,1-1.26-.63L10.9.92,10.84.86A.35.35,0,0,0,10.7.8H7.54c-.06,0-.14.08-.17.1l0,0-.83.84a2.29,2.29,0,0,1-1.27.63H1.59a.82.82,0,0,0-.8.81h0v8.87a.8.8,0,0,0,.8.8H16.68a.79.79,0,0,0,.79-.8h0ZM9.13,12.09a4.44,4.44,0,1,1,4.37-4.5v.06a4.41,4.41,0,0,1-4.37,4.44ZM9.13,4A3.63,3.63,0,1,0,12.7,7.7v0A3.59,3.59,0,0,0,9.14,4Zm0,5.64a2,2,0,1,1,2-2v0A2,2,0,0,1,9.13,9.67Zm0-3.23a1.21,1.21,0,1,0,0,2.42,1.2,1.2,0,0,0,1.22-1.19v0A1.2,1.2,0,0,0,9.13,6.44ZM3.57,4.83H2a.39.39,0,0,1-.4-.4h0V3.62a.4.4,0,0,1,.4-.4H3.57a.4.4,0,0,1,.4.4v.81a.39.39,0,0,1-.39.4Z" fill="#646464"/></g></g></svg>