<svg xmlns="http://www.w3.org/2000/svg" viewBox="0 0 21.27 24.41"><title>Asset 13</title><g id="Layer_2" data-name="Layer 2"><g id="Layer_1-2" data-name="Layer 1"><path d="M0,12.2V3.78C0,1.34,1.34,0,3.62,0H17.55a3.37,3.37,0,0,1,3.7,3.62c0,4.17.08,8.42-.08,12.59a8.45,8.45,0,0,1-7.4,8c-3.07.23-6.22.16-9.28.16H2.91A3.3,3.3,0,0,1,0,20.93ZM10.62,1.34H3.54c-1.49,0-2.2.78-2.2,2.28V20.78A2,2,0,0,0,3.46,23h9a2.07,2.07,0,0,0,2.21-2.2,3.29,3.29,0,0,1,3.22-3.23,2,2,0,0,0,2.05-2.28c0-3.86-.08-7.72,0-11.57a2.19,2.19,0,0,0-2.44-2.44c-2.28.08-4.56.08-6.85.08Zm5.12,21a7.42,7.42,0,0,0,3.54-3.54c-2.83.31-2.83.31-3.54,3.54Z" fill="#999"/><path d="M10.31,7.55H7.16c-.47,0-.86-.15-.86-.62s.39-.71.86-.71h6.3c.47,0,.78.15.78.71s-.39.62-.78.62Z" fill="#999"/><path d="M10.31,11.8H7.16c-.47,0-.86-.15-.86-.63s.39-.7.86-.7h6.3c.47,0,.78.15.78.7s-.39.63-.78.63Z" fill="#999"/><path d="M10.31,16.05H7.16c-.47,0-.86-.15-.86-.63s.39-.7.86-.7h6.3c.47,0,.78.15.78.7s-.39.63-.78.63Z" fill="#999"/></g></g></svg>