<svg xmlns="http://www.w3.org/2000/svg" viewBox="0 0 53.65 51.89"><title>Asset 9</title><g id="Layer_2" data-name="Layer 2"><g id="Layer_1-2" data-name="Layer 1"><path d="M53.65,12.27V4.44A4.36,4.36,0,0,0,49.38,0H33.07A4.36,4.36,0,0,0,28.32,4a4.56,4.56,0,0,0,0,.64V20a4.4,4.4,0,0,0,4.18,4.61,5.61,5.61,0,0,0,.58,0H48.84a4.58,4.58,0,0,0,4.81-4.3v-.48C53.52,17.31,53.65,14.79,53.65,12.27Zm-22.32,0V4.76c0-1.34.5-1.79,1.79-1.79H48.75c1.34,0,1.79.48,1.79,1.79V19.87c0,1.3-.52,1.78-1.79,1.78H33.16c-1.31,0-1.79-.53-1.79-1.78Z" fill="#00fff8"/><path d="M53.65,39.59V31.88a4.36,4.36,0,0,0-4.21-4.51,3.2,3.2,0,0,0-.44,0H33.16a4.39,4.39,0,0,0-4.83,3.92,4.18,4.18,0,0,0,0,.71V47.26a4.38,4.38,0,0,0,4.12,4.63,5.3,5.3,0,0,0,.69,0H48.94a4.36,4.36,0,0,0,4.7-4c0-.18,0-.36,0-.54Zm-3,0v7.54c0,1.38-.48,1.79-1.79,1.79H33.21c-1.43,0-1.91-.5-1.91-1.89V32.1c0-1.31.53-1.79,1.89-1.79H48.73c1.38,0,1.9.5,1.9,1.79Z" fill="#00fff8"/><path d="M0,12.23v7.69a4.37,4.37,0,0,0,4.14,4.6,3.75,3.75,0,0,0,.58,0H20.5a4.42,4.42,0,0,0,4.86-4.7V4.63A4.36,4.36,0,0,0,21.78.09a5.13,5.13,0,0,0-1,0H4.73A4.35,4.35,0,0,0,0,4a3.12,3.12,0,0,0,0,.43ZM12.7,21.62H4.82C3.58,21.62,3,21.1,3,19.83V4.65c0-1.23.52-1.79,1.79-1.79H20.57c1.27,0,1.79.54,1.79,1.79V19.76c0,1.29-.56,1.79-1.79,1.79H12.7Z" fill="#00fff8"/><path d="M0,39.64v7.83a4.34,4.34,0,0,0,4.28,4.41H20.87a4.33,4.33,0,0,0,4.44-4q0-.71,0-1.41V32.17a4.41,4.41,0,0,0-4.08-4.73,4,4,0,0,0-.77,0H4.85A4.58,4.58,0,0,0,0,31.75c0,.11,0,.23,0,.35C.13,34.6,0,37.12,0,39.64Zm12.62-9.37h7.81c1.34,0,1.88.52,1.88,1.79v15c0,1.3-.5,1.79-1.79,1.79H4.85c-1.32,0-1.79-.49-1.79-1.79V32c0-1.25.54-1.79,1.79-1.79Z" fill="#00fff8"/></g></g></svg>