<svg xmlns="http://www.w3.org/2000/svg" viewBox="0 0 104.85 87.94"><title>Asset 26</title><g id="Layer_2" data-name="Layer 2"><g id="Layer_1-2" data-name="Layer 1"><g opacity="0.4"><path d="M99.75,77.91c-.55,0-.45-.38-.47-.7a48.88,48.88,0,0,0-.53-5A36.4,36.4,0,0,0,70.92,43c-.93-.2-2.16-.08-2.72-.63s-.15-1.82-.18-2.76a5,5,0,0,0-9.9-.78A15.65,15.65,0,0,0,58,41.87c0,.46-.14.62-.62.7a32.66,32.66,0,0,0-7,1.83c-1.54.59-3,1.29-4.63,2V45.31c0-2,0-4,0-5.94a2.37,2.37,0,0,0-2.42-2.6c-2.32-.05-4.64,0-7,0a1.45,1.45,0,0,0-1.57,1.41,1.54,1.54,0,0,0,1.48,1.64c.24,0,.48,0,.72,0,1.64,0,3.27,0,4.91,0,.64,0,.8.17.79.8,0,3.69,0,7.37-.06,11.06A15.23,15.23,0,0,1,30.79,66.32c-1.29.32-1.64.75-1.64,2.08,0,3.69,0,7.37,0,11.06a3.07,3.07,0,0,0,.89,2.2,14.12,14.12,0,0,0,2.33,1.83l1.82,1.25.07,0H21.11c1.21-.85,2.27-1.57,3.31-2.34a4,4,0,0,0,1.78-3.56c-.11-3.44,0-6.89,0-10.34,0-1.51-.32-1.9-1.8-2.24A15.27,15.27,0,0,1,12.68,52c-.08-3.69,0-7.37-.08-11.06,0-.93.23-1.17,1.16-1.16,5,.05,9.9,0,14.85,0a2.06,2.06,0,0,0,1.54-.41,1.42,1.42,0,0,0,.43-1.66,1.55,1.55,0,0,0-1.61-1c-3.45,0-6.9,0-10.34,0-.66,0-.88-.14-.87-.84,0-2.08,0-4.17,0-6.25,0-2.9,0-5.8,0-8.7a2.75,2.75,0,0,0-3.06-3,5,5,0,0,1-1,0c-.36-.09-1,.37-1-.38s-.44-1.42.65-1.86a5.92,5.92,0,0,0,3.07-8.47c-1-2-2.14-4-3.26-5.9A2.22,2.22,0,0,0,9,1.34c-1.13,2-2.25,4-3.31,6a5.91,5.91,0,0,0,3,8.33c1.12.44.78,1.21.75,1.89s-.75.28-1.14.39A1.39,1.39,0,0,1,8,18c-2.72,0-3.59.88-3.59,3.62,0,9.28,0,18.56,0,27.85,0,1-.28,1.17-1.18,1.13-1.6-.06-2.1.47-2.11,2,0,1.91,0,3.83,0,5.73a9.84,9.84,0,0,0,5.12,9,1,1,0,0,1,.56.95q0,5.22,0,10.45c0,.55-.15.69-.71.78a7,7,0,0,0-6,6c-.29,1.79.31,2.52,2.09,2.52H84.07a4,4,0,0,0,.91-.06,1.41,1.41,0,0,0,1.25-1.6,1.38,1.38,0,0,0-1.37-1.38,10.47,10.47,0,0,0-1.12,0q-21.26,0-42.49,0A4,4,0,0,1,38.54,84c-1.3-1-2.73-1.91-4.1-2.85h0l0,0a1.21,1.21,0,0,1,.05-.18H99.12a6.91,6.91,0,0,1,1,0,1.9,1.9,0,0,1,.32,3.69,4.45,4.45,0,0,1-1.21.13c-2.29,0-4.57,0-6.86,0a2.33,2.33,0,0,0-1.2.17,1.46,1.46,0,0,0-.79,1.63A1.51,1.51,0,0,0,92,87.91c2.66,0,5.33.07,8,0a4.89,4.89,0,0,0,4.62-3.56,4.39,4.39,0,0,1,.21-.44V82.05C104.08,79.53,102.53,78,99.75,77.91ZM61.33,38.85a1.75,1.75,0,0,1,2-1,1.83,1.83,0,0,1,1.63,1.58,3.45,3.45,0,0,1,0,.72c0,2,0,2-2.07,2-.52-.12-1.55.35-1.7-.18A4.41,4.41,0,0,1,61.33,38.85ZM6.7,82.48c2.93-.07,5.86,0,8.78,0a3.13,3.13,0,0,1,2.1.87,4.92,4.92,0,0,1-4,1.55c-3.32-.14-6.66,0-10.23,0A3.78,3.78,0,0,1,6.7,82.48ZM4.18,54.21c0-.51.2-.62.66-.61q2.14,0,4.29,0c.43,0,.58.15.68.55,1.17,5,1.55,5.78,5,10.18A6.85,6.85,0,0,1,4.28,59.52C4.07,57.76,4.24,56,4.18,54.21ZM7.45,35.67c0-4.57,0-9.14,0-13.71,0-.76.18-1,1-1,1.84.06,3.69,0,5.53,0,.59,0,.82.1.81.77,0,4.74,0,9.48,0,14.22,0,.57-.15.8-.75.76a15.7,15.7,0,0,0-1.94,0,2.37,2.37,0,0,0-2.46,2.55c0,3.38,0,6.75,0,10.13,0,.34.22.9-.17,1a3.53,3.53,0,0,1-1.71,0c-.42-.09-.2-.59-.2-.9Q7.45,42.63,7.45,35.67Zm1.6-23.4a2.92,2.92,0,0,1-.58-3.55c.8-1.53,1.66-3,2.62-4.75,1,1.77,1.87,3.35,2.68,5a2.86,2.86,0,0,1-.69,3.35c-.29.26-.43.34-.73-.08a1.43,1.43,0,0,0-2.57,0C9.44,12.74,9.28,12.48,9.05,12.27Zm.8,57c0-.57.05-.83.75-.8,1.68.06,1.68,0,1.68,1.68V74c0,1.53,0,3.06,0,4.59,0,.68-.19.91-.85.82a2.75,2.75,0,0,0-.81,0c-.63.09-.8-.16-.8-.79C9.88,75.5,9.87,72.41,9.85,69.31ZM20.42,81.42c-.64.16-1-.68-1.55-1a7.31,7.31,0,0,0-3-1c-.45,0-.55-.19-.55-.61,0-3.58,0-7.16,0-10.74,0-.79,1.78-1.74,2.42-1.32A16.65,16.65,0,0,0,22.47,69a.74.74,0,0,1,.64.85c-.05,1.53,0,3.07,0,4.6,0,1.33-.06,2.67,0,4a1.87,1.87,0,0,1-1,1.94C21.55,80.69,21,81.28,20.42,81.42Zm12.83-3.49c-.87,0-1.07-.25-1-1.09,0-2.31,0-4.64,0-7a.82.82,0,0,1,.67-.94c8-2.84,12.71-9.26,12.85-17.76a1.84,1.84,0,0,1,1.1-1.81A33.34,33.34,0,0,1,95.58,71.79,49.84,49.84,0,0,1,96.22,77c.07.79-.18,1-.94,1q-15.56,0-31.12,0C53.86,77.9,43.56,77.89,33.25,77.93Z" fill="#303030"/><path d="M16.37,49.61c-1.57,0-2.07.53-2,2.11a14.83,14.83,0,0,0,.17,1.62A13.45,13.45,0,0,0,28.35,64.82,13.58,13.58,0,0,0,41,51.75c0-1.63-.45-2.14-2.1-2.14H16.37Zm20.48,3.06c.72,0,1,.13.8.89a10.46,10.46,0,0,1-9.94,8.2,10.47,10.47,0,0,1-10-8.19c-.17-.75.05-.92.78-.9,3.07,0,6.14,0,9.21,0S33.78,52.7,36.85,52.67Z" fill="#303030"/></g></g></g></svg>