<svg xmlns="http://www.w3.org/2000/svg" viewBox="0 0 92.35 78.87"><title>Asset 17</title><g id="Layer_2" data-name="Layer 2"><g id="Layer_1-2" data-name="Layer 1"><path d="M47.26,19.55A.86.86,0,0,1,48,20l7.28,12.19,14,23.43c.22.37.17.46.12.55h0c0,.07-.08.14-.54.14H38.64c-3.79,0-8.27,0-12.79,0a1.18,1.18,0,0,1-.49-.12,1,1,0,0,1,.12-.31l5.67-9.67.08-.13c5-8.54,10.18-17.36,15.26-26a.89.89,0,0,1,.77-.48M42.68,43.63h1.68c-.13.82-.25,1.65-.38,2.47-.34,2.27-.69,4.53-1,6.79a1.57,1.57,0,0,0,1,1.71l.11,0h0a1.7,1.7,0,0,0,.54.09A1.58,1.58,0,0,0,46,53.92l3.6-6.6c1.1-2,2.21-4.06,3.33-6.11a1.6,1.6,0,0,0,0-1.56,1.59,1.59,0,0,0-1.35-.77H49.86c.46-3,.91-6,1.37-9l0-.21a1.58,1.58,0,0,0-1.17-1.76l-.08,0h0a1.55,1.55,0,0,0-1.76.77l-.11.21L41.29,41.3a1.58,1.58,0,0,0,1.39,2.33M47.26,18a2.45,2.45,0,0,0-2.12,1.25L29.79,45.41l-5.67,9.66a1.71,1.71,0,0,0,.3,2.38,2.66,2.66,0,0,0,1.43.42q6.39,0,12.79,0H68.86a1.94,1.94,0,0,0,1.91-1,2,2,0,0,0-.14-2.13Q60,37,49.35,19.19A2.43,2.43,0,0,0,47.26,18ZM42.68,42.05l6.91-12.67.12,0c-.56,3.67-1.12,7.33-1.68,11.06h3.51c-2.34,4.27-4.63,8.49-6.93,12.7l-.11,0c.56-3.67,1.12-7.35,1.69-11.07Z" fill="#7e7e7e"/><path d="M14.56,1.57A13.07,13.07,0,0,1,27.38,12.28a10.58,10.58,0,0,1-.82,6.4c-.82,1.86-1.72,3.74-2.73,5.75C23,26,22.2,27.57,21.4,29.1l-1.59,3H11.4c-.87,0-1.6,0-2.27,0-.61-1.23-1.24-2.46-1.86-3.65-1-1.93-2-3.93-3-5.91-.53-1.06-1-2.16-1.44-3.32-.16-.41-.33-.83-.5-1.25A10.74,10.74,0,0,1,3,8.7,13,13,0,0,1,14.56,1.57m0-1.57a14.54,14.54,0,0,0-13,8A12.32,12.32,0,0,0,.9,18.6c.65,1.56,1.24,3.15,2,4.67,1.61,3.28,3.32,6.52,5,9.78a1.06,1.06,0,0,0,1.1.65H9l2.39,0h6.16l2.6,0h.05a.79.79,0,0,0,.81-.49c1.4-2.7,2.84-5.37,4.21-8.07,1-1.92,1.9-3.86,2.77-5.82A12.21,12.21,0,0,0,28.93,12,14.6,14.6,0,0,0,14.56,0Z" fill="#7e7e7e"/><path d="M86.59,20.79h.15V32.53h2.11l-.15.9c-.07.46-.14.92-.21,1.36-.13.93-.26,1.81-.46,2.65a10.87,10.87,0,0,1-2.75,5,6.95,6.95,0,0,1-10.59-.06,12,12,0,0,1-3.11-7c0-.34-.06-.71-.09-1.09s0-.47,0-.71l-.09-1h2.43V20.79h.78V32.5H85.94V20.79h.65m0-1.57h-.73c-1.16,0-1.5.35-1.5,1.53V30.93H76.13V29c0-2.78,0-5.55,0-8.33,0-1-.4-1.39-1.36-1.4h-1.1c-1.11,0-1.46.35-1.46,1.44V31H68.88c-.79,0-1.18.51-1.17,1.42a1.15,1.15,0,0,0,1.17,1.3h1c0,.67.08,1.27.15,1.87a13.61,13.61,0,0,0,3.52,7.93,8.53,8.53,0,0,0,12.88.07,12.36,12.36,0,0,0,3.13-5.75c.33-1.33.47-2.7.7-4.12l.54,0a1.47,1.47,0,0,0,.36,0,1.82,1.82,0,0,0,.95-.53,1.48,1.48,0,0,0,.05-1.58A1.15,1.15,0,0,0,91,31H88.32v-10c0-.2,0-.4,0-.61a1.1,1.1,0,0,0-1.17-1.07Z" fill="#7e7e7e"/><path d="M80.9,49V69.34a3.35,3.35,0,0,1-3.6,3.6H70.08V72h6.16a3.15,3.15,0,0,0,3.43-3.43V49H80.9m1.55-1.57H78.1V68.53c0,1.28-.58,1.85-1.86,1.85H68.5v4.14h8.81a4.92,4.92,0,0,0,5.16-5.18q0-10.67,0-21.35c0-.18,0-.36,0-.57Z" fill="#7e7e7e"/><path d="M15.07,49.16v19.1c0,2.56,1.29,3.86,3.82,3.86h5.8v.67H17.53a3.16,3.16,0,0,1-3.35-3.31c0-5.13,0-10.36,0-15.41V49.16h.89m1.73-1.73H12.47c0,.18,0,.33,0,.47q0,10.8,0,21.59a4.89,4.89,0,0,0,5.08,5h8.34l.55,0V70.42l-.46,0H18.89c-1.59,0-2.09-.51-2.09-2.12V47.43Z" fill="#7e7e7e"/><path d="M18.69,36.47H20v5.2a2.14,2.14,0,0,1-1.8,2.18,2.63,2.63,0,0,0-1.47.86l-.09.08H12.36l-.06-.07h0A2.6,2.6,0,0,0,11,43.83h0a2.12,2.12,0,0,1-1.75-2.24c0-1.29,0-2.59,0-3.86V36.47h9.51m0-1.57H8.48c-.79,0-.88.09-.88.9v5.79a3.68,3.68,0,0,0,2.94,3.76,1,1,0,0,1,.51.33,1.59,1.59,0,0,0,1.33.68h4.25a1.58,1.58,0,0,0,1.24-.61,1.2,1.2,0,0,1,.61-.36,3.7,3.7,0,0,0,3.06-3.72c0-2,0-4,0-6,0-.68-.13-.81-.8-.81Z" fill="#7e7e7e"/><path d="M67.6,72.49a6.35,6.35,0,1,1-6.38-6.32A6.33,6.33,0,0,1,67.6,72.49Z" fill="#7e7e7e"/><path d="M39.9,72.47a6.35,6.35,0,1,1-6.44-6.3A6.33,6.33,0,0,1,39.9,72.47Z" fill="#7e7e7e"/><path d="M90.78,8.72V15.5H69.17V8.72H90.78m.67-1.57h-23a.91.91,0,0,0-.91.9v8.11a.91.91,0,0,0,.91.91h23a.9.9,0,0,0,.9-.91V8.05a.9.9,0,0,0-.9-.9Z" fill="#7e7e7e"/><path d="M73.54,10.45a1.66,1.66,0,1,1-1.65,1.66,1.66,1.66,0,0,1,1.65-1.66m0-1.57a3.23,3.23,0,1,0,3.23,3.23,3.22,3.22,0,0,0-3.23-3.23Z" fill="#7e7e7e"/><path d="M86.4,10.45a1.66,1.66,0,1,1-1.65,1.66,1.66,1.66,0,0,1,1.65-1.66m0-1.57a3.23,3.23,0,1,0,3.23,3.23A3.22,3.22,0,0,0,86.4,8.88Z" fill="#7e7e7e"/></g></g></svg>