<svg id="Layer_1" data-name="Layer 1" xmlns="http://www.w3.org/2000/svg" viewBox="0 0 69.1 136.7"><title>facebook</title><g id="_Group_" data-name="&lt;Group&gt;"><path id="_Path_" data-name="&lt;Path&gt;" d="M39.7,76.5h15v61.7a2.22,2.22,0,0,0,2.2,2.2H82.3a2.22,2.22,0,0,0,2.2-2.2V76.7h17.2a2.17,2.17,0,0,0,2.2-1.9l2.6-22.7a2.16,2.16,0,0,0-.5-1.7,2,2,0,0,0-1.6-.7H84.5V35.4c0-4.3,2.3-6.5,6.9-6.5h13a2.22,2.22,0,0,0,2.2-2.2V5.9a2.22,2.22,0,0,0-2.2-2.2H85.6c-3.1,0-13.9.6-22.4,8.4A23.66,23.66,0,0,0,55.4,33V49.6H39.7a2.22,2.22,0,0,0-2.2,2.2V74.2A2.24,2.24,0,0,0,39.7,76.5Z" transform="translate(-37.5 -3.7)" fill="#039be5"/></g></svg>