<svg id="Layer_1" data-name="Layer 1" xmlns="http://www.w3.org/2000/svg" viewBox="0 0 120 120"><title>google</title><path d="M130.83,60.25H126V60H72V84h33.91a36,36,0,1,1-10-38.88l17-17a59.84,59.84,0,1,0,18,32.1Z" transform="translate(-12 -12)" fill="#ffc107"/><path d="M18.92,44.07,38.63,58.53A35.92,35.92,0,0,1,95.88,45.12l17-17A59.87,59.87,0,0,0,18.92,44.07Z" transform="translate(-12 -12)" fill="#ff3d00"/><path d="M72,132a59.71,59.71,0,0,0,40.23-15.58L93.66,100.71A35.91,35.91,0,0,1,38.15,84.16L18.59,99.24A59.94,59.94,0,0,0,72,132Z" transform="translate(-12 -12)" fill="#4caf50"/><path d="M130.83,60.25H126V60H72V84h33.91a36.1,36.1,0,0,1-12.26,16.71h0l18.57,15.71C110.91,117.62,132,102,132,72A59.88,59.88,0,0,0,130.83,60.25Z" transform="translate(-12 -12)" fill="#1976d2"/></svg>