<svg xmlns="http://www.w3.org/2000/svg" viewBox="0 0 13.13 11.62"><title>Asset 6</title><g id="Layer_2" data-name="Layer 2"><g id="Layer_1-2" data-name="Layer 1"><path d="M6.57,11.62,1.06,6.11a3.6,3.6,0,0,1,0-5.1,3.48,3.48,0,0,1,3.05-1A3.52,3.52,0,0,1,6.57,1.79,3.49,3.49,0,0,1,12,1l.06.05a3.62,3.62,0,0,1,0,5.1ZM3.49,1.16a2.27,2.27,0,0,0-1.57.63,2.46,2.46,0,0,0,0,3.5L6.57,10l4.69-4.69a2.44,2.44,0,0,0,0-3.45l0,0a2.31,2.31,0,0,0-2-.63,2.35,2.35,0,0,0-1.7,1.28L6.57,4.39l-1-1.92a2.35,2.35,0,0,0-1.7-1.28A3,3,0,0,0,3.49,1.16Z" fill="#707070"/></g></g></svg>