<svg xmlns="http://www.w3.org/2000/svg" viewBox="0 0 18.3 28.87"><title>Asset 14</title><g id="Layer_2" data-name="Layer 2"><g id="Layer_1-2" data-name="Layer 1"><path d="M8.72,28.87A3.34,3.34,0,0,1,6.4,28a3,3,0,0,1,0-4.39,3.38,3.38,0,0,1,2.32-.84,3.38,3.38,0,0,1,2.32.84A3,3,0,0,1,11,28,3.34,3.34,0,0,1,8.72,28.87Zm0-4.86a2.17,2.17,0,0,0-1.52.53,1.62,1.62,0,0,0-.56,1.29,1.64,1.64,0,0,0,.56,1.3,2.17,2.17,0,0,0,1.52.53,2.17,2.17,0,0,0,1.52-.53,1.64,1.64,0,0,0,.56-1.3,1.62,1.62,0,0,0-.56-1.29A2.17,2.17,0,0,0,8.72,24Zm.08-2.25h0A3.31,3.31,0,0,1,6.38,20.7a3.26,3.26,0,0,1-.85-2.47A13.79,13.79,0,0,1,6.06,15a7.28,7.28,0,0,1,2.16-3,12.9,12.9,0,0,0,2-2,2.84,2.84,0,0,0,.59-1.75C10.81,6.3,9.89,6,9,6a1.62,1.62,0,0,0-1.34.6,3.13,3.13,0,0,0-.43,1,3.71,3.71,0,0,1-6.6.9A3.67,3.67,0,0,1,.27,5.07,7.7,7.7,0,0,1,2.13,2.23,9.93,9.93,0,0,1,9,0H9a10.31,10.31,0,0,1,6.81,2.06A7.32,7.32,0,0,1,18.3,8,6.92,6.92,0,0,1,17.62,11a9.92,9.92,0,0,1-2.09,2.75h0l-2.13,2a4.46,4.46,0,0,0-1.12,1.57,7.45,7.45,0,0,0-.21,1.42A3.26,3.26,0,0,1,8.8,21.76ZM9,4.83c1.13,0,3,.44,3,3.41a4,4,0,0,1-.84,2.47A13.94,13.94,0,0,1,9,12.92,6.08,6.08,0,0,0,7.18,15.4a13,13,0,0,0-.45,2.92,2,2,0,0,0,.54,1.56,2.07,2.07,0,0,0,3.59-1.22,7.25,7.25,0,0,1,.29-1.75,5.56,5.56,0,0,1,1.41-2l2.14-2a9,9,0,0,0,1.84-2.41A5.84,5.84,0,0,0,17.09,8,6.09,6.09,0,0,0,15,3,9.15,9.15,0,0,0,9,1.21,8.79,8.79,0,0,0,2.94,3.12a6.64,6.64,0,0,0-1.55,2.4,2.43,2.43,0,0,0,.24,2.32A2.51,2.51,0,0,0,3.71,9,2.48,2.48,0,0,0,6.08,7.24a4.23,4.23,0,0,1,.65-1.38A2.85,2.85,0,0,1,9,4.83Z" fill="#0dd"/></g></g></svg>