<svg xmlns="http://www.w3.org/2000/svg" viewBox="0 0 23.61 23.43"><title>Asset 12</title><g id="Layer_2" data-name="Layer 2"><g id="Layer_1-2" data-name="Layer 1"><path d="M21.87,23.43H17.4a1.75,1.75,0,0,1-1.75-1.74V13.83a2.32,2.32,0,0,0-2.32-2.33H10.28A2.32,2.32,0,0,0,8,13.83v7.86a1.75,1.75,0,0,1-1.75,1.74H1.75A1.74,1.74,0,0,1,0,21.69V11.46A3.12,3.12,0,0,1,.93,9.23L9,1.17a4,4,0,0,1,5.63,0l8.06,8.06a3.12,3.12,0,0,1,.93,2.23V21.69A1.74,1.74,0,0,1,21.87,23.43ZM10.28,10.21h3.05a3.62,3.62,0,0,1,3.61,3.62v7.86a.46.46,0,0,0,.46.45h4.47a.45.45,0,0,0,.45-.45V11.46a1.82,1.82,0,0,0-.55-1.32L13.71,2.08a2.68,2.68,0,0,0-3.81,0L1.84,10.14a1.82,1.82,0,0,0-.55,1.32V21.69a.45.45,0,0,0,.46.45H6.21a.46.46,0,0,0,.46-.45V13.83A3.62,3.62,0,0,1,10.28,10.21Z" fill="#999"/></g></g></svg>