<svg xmlns="http://www.w3.org/2000/svg" viewBox="0 0 93.59 82.91"><title>Asset 31</title><g id="Layer_2" data-name="Layer 2"><g id="Layer_1-2" data-name="Layer 1"><path d="M79.89,0,76.46,3.43a30,30,0,0,1-1,49.16L79,56.05a34.81,34.81,0,0,0,.94-56Z" fill="#7e7e7e"/><path d="M70.2,9.69l-3.46,3.46a17.33,17.33,0,0,1-1,29.66l3.51,3.51a22.13,22.13,0,0,0,1-36.63Z" fill="#7e7e7e"/><path d="M61.5,18.4l-3.42,3.41a9.16,9.16,0,0,1-.8,12.57l3.41,3.4A14,14,0,0,0,61.5,18.4Z" fill="#7e7e7e"/><path d="M0,27.67A34.85,34.85,0,0,0,14.63,56.05l3.46-3.46a30,30,0,0,1-1-49.16L13.69,0A34.81,34.81,0,0,0,0,27.67Z" fill="#7e7e7e"/><path d="M14.15,27.67a22.16,22.16,0,0,0,10.2,18.65l3.52-3.51a17.33,17.33,0,0,1-1-29.66L23.39,9.69A22.12,22.12,0,0,0,14.15,27.67Z" fill="#7e7e7e"/><path d="M28.57,27.67A13.91,13.91,0,0,0,32.9,37.78l3.4-3.4a9.18,9.18,0,0,1-.79-12.57L32.09,18.4A13.94,13.94,0,0,0,28.57,27.67Z" fill="#7e7e7e"/><path d="M50.67,34.8A8.15,8.15,0,0,0,56,27.41c0-4.5-4.08-8.14-9.11-8.14s-9.11,3.64-9.11,8.14A8.14,8.14,0,0,0,43,34.76l-3.23,43a4.86,4.86,0,0,0,4.86,5.19h4.59A4.86,4.86,0,0,0,54,77.7Z" fill="#6b6b6b" fill-rule="evenodd"/></g></g></svg>