<svg xmlns="http://www.w3.org/2000/svg" viewBox="0 0 103.47 82.91"><title>Asset 30</title><g id="Layer_2" data-name="Layer 2"><g id="Layer_1-2" data-name="Layer 1"><path d="M58.5,1.34V13.08l.84.34L74.56,19.6H27l15.06-6.05.85-.34V1.34H58.5M59.84,0H41.57V12.3L20.08,20.94H81.43L59.84,12.18V0Z" fill="#7e7e7e"/><path d="M80.49,23v1.75H20.75V23H80.49m0-.53H20.75a.54.54,0,0,0-.54.53v1.75a.54.54,0,0,0,.54.53H80.49a.54.54,0,0,0,.54-.53V23a.54.54,0,0,0-.54-.53Z" fill="#7e7e7e"/><path d="M23,53a.54.54,0,0,1-.54-.53V47.36A2.41,2.41,0,0,0,20.06,45h-.54a2.42,2.42,0,0,0-2.42,2.41.54.54,0,1,1-1.07,0,3.5,3.5,0,0,1,3.49-3.49h.54a3.49,3.49,0,0,1,3.48,3.49v5.15A.53.53,0,0,1,23,53Z" fill="#7e7e7e"/><path d="M21.26,53a.53.53,0,0,1-.53-.53V50.85a.54.54,0,1,1,1.07,0v1.66A.54.54,0,0,1,21.26,53Z" fill="#7e7e7e"/><path d="M21.26,51.37h-1a.27.27,0,0,1,0-.54h1a.27.27,0,1,1,0,.54Z" fill="#7e7e7e"/><path d="M26.36,82.91H0V60.16a8.34,8.34,0,0,1,8.33-8.33h18Zm-25-1.34H25V53.18H8.33a7,7,0,0,0-7,7Z" fill="#7e7e7e"/><path d="M22.16,73.43H4.54A1.54,1.54,0,0,1,3,71.89V69.21a1.55,1.55,0,0,1,1.54-1.55H22.16a1.55,1.55,0,0,1,1.54,1.55v2.68A1.54,1.54,0,0,1,22.16,73.43Zm-17.62-5a.74.74,0,0,0-.74.74v2.68a.74.74,0,0,0,.74.74H22.16a.74.74,0,0,0,.74-.74V69.21a.74.74,0,0,0-.74-.74Z" fill="#7e7e7e"/><path d="M22.16,79.87H4.54A1.54,1.54,0,0,1,3,78.33V75.65A1.55,1.55,0,0,1,4.54,74.1H22.16a1.55,1.55,0,0,1,1.54,1.55v2.68A1.54,1.54,0,0,1,22.16,79.87Zm-17.62-5a.74.74,0,0,0-.74.74v2.68a.74.74,0,0,0,.74.74H22.16a.74.74,0,0,0,.74-.74V75.65a.74.74,0,0,0-.74-.74Z" fill="#7e7e7e"/><path d="M9.95,69.83h6.28a0,0,0,0,1,0,0v0a1.32,1.32,0,0,1-1.32,1.32H11.27a1.32,1.32,0,0,1-1.32-1.32v0A0,0,0,0,1,9.95,69.83Z" fill="#7e7e7e"/><path d="M9.95,76.62h6.28a0,0,0,0,1,0,0v0a1.32,1.32,0,0,1-1.32,1.32H11.27a1.32,1.32,0,0,1-1.32-1.32v0A0,0,0,0,1,9.95,76.62Z" fill="#7e7e7e"/><path d="M101.22,82.91H74.86V51.83h18a8.34,8.34,0,0,1,8.33,8.33Zm-25-1.34H99.88V60.16a7,7,0,0,0-7-7H76.2Z" fill="#7e7e7e"/><path d="M96.68,73.43H79.06a1.54,1.54,0,0,1-1.54-1.54V69.21a1.55,1.55,0,0,1,1.54-1.55H96.68a1.55,1.55,0,0,1,1.54,1.55v2.68A1.54,1.54,0,0,1,96.68,73.43Zm-17.62-5a.74.74,0,0,0-.74.74v2.68a.74.74,0,0,0,.74.74H96.68a.74.74,0,0,0,.74-.74V69.21a.74.74,0,0,0-.74-.74Z" fill="#7e7e7e"/><path d="M96.68,79.87H79.06a1.54,1.54,0,0,1-1.54-1.54V75.65a1.55,1.55,0,0,1,1.54-1.55H96.68a1.55,1.55,0,0,1,1.54,1.55v2.68A1.54,1.54,0,0,1,96.68,79.87Zm-17.62-5a.74.74,0,0,0-.74.74v2.68a.74.74,0,0,0,.74.74H96.68a.74.74,0,0,0,.74-.74V75.65a.74.74,0,0,0-.74-.74Z" fill="#7e7e7e"/><path d="M86.31,69.83h3.63a1.32,1.32,0,0,1,1.32,1.32v0a0,0,0,0,1,0,0H85a0,0,0,0,1,0,0v0A1.32,1.32,0,0,1,86.31,69.83Z" transform="translate(176.25 140.99) rotate(-180)" fill="#7e7e7e"/><path d="M86.31,76.62h3.63a1.32,1.32,0,0,1,1.32,1.32v0a0,0,0,0,1,0,0H85a0,0,0,0,1,0,0v0a1.32,1.32,0,0,1,1.32-1.32Z" transform="translate(176.25 154.57) rotate(-180)" fill="#7e7e7e"/><path d="M40.92,52.5H33.4a1.75,1.75,0,0,1-1.74-1.75V45.48h-.57a.87.87,0,0,1,0-1.74h.57v-.5h11v.5H43a.87.87,0,0,1,0,1.74h-.34v5.27A1.75,1.75,0,0,1,40.92,52.5Zm-9.83-8.36a.47.47,0,0,0,0,.94h1v5.67a1.34,1.34,0,0,0,1.34,1.34h7.52a1.34,1.34,0,0,0,1.34-1.34V45.08H43a.47.47,0,0,0,0-.94h-.74v-.5H32.06v.5Z" fill="#7e7e7e"/><path d="M33.43,35.71c.09.52.15,1,.26,1.46a2.91,2.91,0,0,0,.48,1.17,1.83,1.83,0,0,1,.37.85,2.41,2.41,0,0,1,0,.85,3.1,3.1,0,0,1-.66,1.42c0-.52.06-1,0-1.47a1.93,1.93,0,0,0-.33-1.14,2.31,2.31,0,0,1-.4-.8,3.27,3.27,0,0,1-.09-.82A3.48,3.48,0,0,1,33.43,35.71Z" fill="#7e7e7e"/><path d="M36.81,35.71c.09.52.15,1,.26,1.46a2.91,2.91,0,0,0,.48,1.17,1.83,1.83,0,0,1,.37.85,2.67,2.67,0,0,1,0,.85,3.22,3.22,0,0,1-.67,1.42c0-.52.06-1,0-1.47a1.93,1.93,0,0,0-.33-1.14,2.13,2.13,0,0,1-.39-.8,2.88,2.88,0,0,1-.1-.82A3.48,3.48,0,0,1,36.81,35.71Z" fill="#7e7e7e"/><path d="M40.06,35.71c.09.52.15,1,.26,1.46a2.91,2.91,0,0,0,.48,1.17,1.83,1.83,0,0,1,.37.85,2.67,2.67,0,0,1,0,.85,3.22,3.22,0,0,1-.67,1.42c0-.52.06-1,0-1.47a1.93,1.93,0,0,0-.33-1.14,2.31,2.31,0,0,1-.4-.8,3.27,3.27,0,0,1-.09-.82A3.48,3.48,0,0,1,40.06,35.71Z" fill="#7e7e7e"/><path d="M66,52.28H54.4a1.52,1.52,0,0,1-1.52-1.52v-.69H67.5v.69A1.52,1.52,0,0,1,66,52.28Zm-12.7-1.81v.29a1.12,1.12,0,0,0,1.12,1.12H66a1.12,1.12,0,0,0,1.12-1.12v-.29Z" fill="#7e7e7e"/><path d="M53.21,51.25l-6.08-1.64V48.55l6.08,1.62ZM47.4,49.41,53,50.9v-.53L47.4,48.9Z" fill="#7e7e7e"/><path d="M72.12,82.91H28.94a1.8,1.8,0,0,1-1.8-1.8V53.9a1.81,1.81,0,0,1,1.8-1.8H72.12a1.81,1.81,0,0,1,1.8,1.8V81.11A1.8,1.8,0,0,1,72.12,82.91ZM28.94,53.44a.47.47,0,0,0-.46.46V81.11a.46.46,0,0,0,.46.46H72.12a.46.46,0,0,0,.46-.46V53.9a.47.47,0,0,0-.46-.46Z" fill="#7e7e7e"/><path d="M71.59,64.53h-42V59h42Zm-41.23-.8H70.79V59.84H30.36Z" fill="#7e7e7e"/><path d="M71.59,80.5h-42V65.34h42Zm-41.23-.81H70.79V66.14H30.36Z" fill="#7e7e7e"/><path d="M32.3,68.06H68.89a0,0,0,0,1,0,0v0a1.27,1.27,0,0,1-1.27,1.27h-34a1.27,1.27,0,0,1-1.27-1.27v0a0,0,0,0,1,0,0Z" fill="#7e7e7e"/><circle cx="37.22" cy="62.25" r="1.12" fill="#7e7e7e"/><path d="M37.22,61.2a.17.17,0,0,1-.17-.16v-.43a.17.17,0,0,1,.17-.16.17.17,0,0,1,.18.16V61A.17.17,0,0,1,37.22,61.2Z" fill="#7e7e7e"/><circle cx="43.98" cy="62.25" r="1.12" fill="#7e7e7e"/><path d="M44,61.2a.16.16,0,0,1-.17-.16v-.43a.16.16,0,0,1,.17-.16.17.17,0,0,1,.18.16V61A.17.17,0,0,1,44,61.2Z" fill="#7e7e7e"/><circle cx="50.73" cy="62.25" r="1.12" fill="#7e7e7e"/><path d="M50.74,61.2a.17.17,0,0,1-.18-.16v-.43a.17.17,0,0,1,.18-.16.16.16,0,0,1,.17.16V61A.16.16,0,0,1,50.74,61.2Z" fill="#7e7e7e"/><circle cx="57.49" cy="62.25" r="1.12" fill="#7e7e7e"/><path d="M57.5,61.2a.17.17,0,0,1-.18-.16v-.43a.17.17,0,0,1,.18-.16.17.17,0,0,1,.17.16V61A.17.17,0,0,1,57.5,61.2Z" fill="#7e7e7e"/><circle cx="64.25" cy="62.25" r="1.12" fill="#7e7e7e"/><path d="M64.26,61.2a.17.17,0,0,1-.18-.16v-.43a.17.17,0,0,1,.18-.16.17.17,0,0,1,.17.16V61A.17.17,0,0,1,64.26,61.2Z" fill="#7e7e7e"/><path d="M84.21,42.14A4.78,4.78,0,1,1,89,37.36,4.78,4.78,0,0,1,84.21,42.14Zm0-8.75a4,4,0,1,0,4,4A4,4,0,0,0,84.21,33.39Z" fill="#7e7e7e"/><rect x="83.54" y="24.83" width="1.34" height="8.16" fill="#7e7e7e"/><path d="M97.16,47a6.32,6.32,0,1,1,6.31-6.32A6.33,6.33,0,0,1,97.16,47Zm0-11.83a5.51,5.51,0,1,0,5.51,5.51A5.51,5.51,0,0,0,97.16,35.18Z" fill="#7e7e7e"/><rect x="96.49" y="24.83" width="1.34" height="9.95" fill="#7e7e7e"/><path d="M37.34,44.24h0l-2.2,2.18-2.18,2.2s0,0,0,0h0l.61-.49.59-.51.57-.53.55-.54.54-.55.53-.57.51-.59C37,44.65,37.18,44.46,37.34,44.24Z" fill="#7e7e7e"/><path d="M33.09,47.17h0a7.81,7.81,0,0,0,.79-.6c.13-.1.25-.22.37-.32l.35-.35.34-.35c.11-.12.23-.24.33-.37a7.81,7.81,0,0,0,.6-.79h0l-1.4,1.38-1.38,1.4v0Z" fill="#7e7e7e"/><path d="M33.18,45.76h0a1.53,1.53,0,0,0,.42-.22l.18-.14.16-.15.16-.17.14-.18a1.86,1.86,0,0,0,.22-.42h0l-.64.64-.64.65h0Z" fill="#7e7e7e"/></g></g></svg>