<svg xmlns="http://www.w3.org/2000/svg" viewBox="0 0 79.33 79.31"><title>Asset 25</title><g id="Layer_2" data-name="Layer 2"><g id="Layer_1-2" data-name="Layer 1"><g opacity="0.79"><path d="M79.33,68.53c-.06-1.44,0-2.88,0-4.32a4.12,4.12,0,0,0-1.17-3,8.86,8.86,0,0,0-2.69-2c-.49-.24-.73-.46-.48-1.07a7.6,7.6,0,0,0,.48-2.5,11.51,11.51,0,0,0-14.6-11.78,14.71,14.71,0,0,0-3.25,1.44,1.76,1.76,0,0,1,0-.23q0-6.63,0-13.27a4.94,4.94,0,0,1,3.65-5.1,7.43,7.43,0,0,0,5.3-7.34q0-7.68,0-15.35a3.84,3.84,0,1,0-7.67,0V14.15c0,.83,0,1.65,0,2.48a1.25,1.25,0,0,1-1.26,1.27,1.27,1.27,0,0,1-1.28-1.26c0-.22,0-.43,0-.64,0-4,0-7.94,0-11.91a3.84,3.84,0,1,0-7.67,0v9.59c0,1,0,2,0,3a1.24,1.24,0,0,1-1.26,1.27,1.26,1.26,0,0,1-1.28-1.26c0-.21,0-.42,0-.64q0-6,0-12a4,4,0,0,0-.87-2.59,3.83,3.83,0,0,0-6.8,2.41c0,5.06,0,10.12,0,15.19,0,4,1.77,6.52,5.59,7.85a4.81,4.81,0,0,1,3.34,4.35c0,3.73,0,7.46,0,11.19,0,.42-.13.49-.5.41a29.29,29.29,0,0,0-7-.6,1.33,1.33,0,0,1-1-.43c-2.41-2.45-4.86-4.86-7.27-7.31-.38-.38-.61-.47-1,0a1.3,1.3,0,0,1-1.13.66c0-1.86,0-3.7,0-5.53a5.25,5.25,0,0,1,1.79-4.19c5.63-5.12,6-15,1.6-20.92s-12.1-6-16.71-.37C11.35,10,11.7,20.18,17.38,25.36a5.46,5.46,0,0,1,1.84,4.32c0,4,0,8.1,0,12.15a13.35,13.35,0,0,1-.44,4,1.24,1.24,0,0,1-1,1A13.36,13.36,0,0,0,7.15,57.25a1.19,1.19,0,0,1-.82.93,14,14,0,0,0-4.81,2.74A4.32,4.32,0,0,0,0,64.39c0,1.35.07,2.72,0,4.07A4.52,4.52,0,0,0,1.76,72.3a11.3,11.3,0,0,0,2,1.39,31.65,31.65,0,0,0,7.54,2.73,118.12,118.12,0,0,0,25.42,2.85,147.61,147.61,0,0,0,20.49-1,70.83,70.83,0,0,0,14.13-2.86,17.78,17.78,0,0,0,6.33-3.27A4.42,4.42,0,0,0,79.33,68.53ZM74,61.36a9.2,9.2,0,0,1,2.16,1.48c.83.84.82,1.48,0,2.33a8.31,8.31,0,0,1-2.68,1.68,47.72,47.72,0,0,1-10.94,3c-.34.07-.67.12-1.21.21a12.37,12.37,0,0,0,1.9-3.3c.11-.3.34-.27.58-.27a11.39,11.39,0,0,0,9.61-4.9C73.54,61.38,73.62,61.16,74,61.36ZM64,46.05a9,9,0,1,1-9,9A9,9,0,0,1,64,46.05ZM52.46,55c0,1.21,0,1.21-1.1,1.42a6.36,6.36,0,0,0-5.29,6.52A6.45,6.45,0,0,0,51.75,69c.52.07.82,0,.71-.62a1.71,1.71,0,0,1,0-.32,3.52,3.52,0,0,0-.05-1.42c-.18-.39-.8-.23-1.21-.37a3.85,3.85,0,0,1,1.34-7.48.78.78,0,0,1,.82.56,11.3,11.3,0,0,0,6.87,6.47c.46.16.47.31.27.71a9.16,9.16,0,0,1-3.8,4,2.66,2.66,0,0,1-1.07.28c-1.59.14-3.18.27-4.77.43A3.29,3.29,0,0,1,49.31,71a9,9,0,0,1-5.76-9.34,9.09,9.09,0,0,1,8.1-8C53,53.58,52.28,54.55,52.46,55Zm-8-30.65A4.84,4.84,0,0,1,41,19.52c0-5.12,0-10.23,0-15.35,0-1,.46-1.59,1.26-1.6s1.29.58,1.3,1.65c0,4.15,0,8.31,0,12.46A3.82,3.82,0,0,0,50.92,18a4.37,4.37,0,0,0,.26-1.64V4.5c0-.21,0-.42,0-.64a1.27,1.27,0,0,1,1.25-1.29,1.25,1.25,0,0,1,1.3,1.32c0,2,0,4,0,6.07s0,4.37,0,6.55a3.84,3.84,0,1,0,7.67,0c0-4,0-8,0-12.07,0-.21,0-.42,0-.63a1.28,1.28,0,0,1,1.23-1.23A1.26,1.26,0,0,1,64,3.8c0,.66,0,1.33,0,2V19.3a4.92,4.92,0,0,1-3.66,5.09A7.43,7.43,0,0,0,55,31.74c0,4.64,0,9.27,0,14.05a29.3,29.3,0,0,0-4.77-2c-.44-.14-.35-.46-.35-.75V32A7.5,7.5,0,0,0,44.43,24.32ZM38.87,44.76A28.16,28.16,0,0,1,53.79,48c.53.29.76.46.33,1.07s-.51,1.55-1,1.92-1.43.14-2.15.25a11.06,11.06,0,0,0-9.4,7.92c-1.44,4.47-.3,8.44,3,11.79.13.14.36.23.39.47a1.41,1.41,0,0,1-.78.11,142.49,142.49,0,0,1-27.37-1.72c-1.52-.26-3-.64-4.53-.93-.45-.08-.57-.25-.49-.69.17-.85.3-1.71.48-2.77.86.88,1.64,1.64,2.37,2.43.32.34.49.39.87,0a13.8,13.8,0,0,0,4.21-7.52,1,1,0,0,1,.92-.93c5.82-1.36,9.43-4.95,10.77-10.78a1,1,0,0,1,.87-.89,13.27,13.27,0,0,0,6-2.8A1,1,0,0,1,38.87,44.76ZM35,41.54c.5.51,1,1,1.56,1.54A9.38,9.38,0,0,1,32,45.22a3.76,3.76,0,0,0-3.24,3.23,10.6,10.6,0,0,1-8.46,8.44,3.7,3.7,0,0,0-3.19,3.18,10.13,10.13,0,0,1-1.83,4.2c-.23.3-.36.37-.65,0-.42-.48-1.06-.84-1.3-1.38s.51-1,.73-1.6a22.07,22.07,0,0,0,.81-2.66,5.34,5.34,0,0,1,4.17-4.15A9.43,9.43,0,0,0,24.8,51.1a10.34,10.34,0,0,0,1.59-3.87A5.44,5.44,0,0,1,30.66,43a9.14,9.14,0,0,0,3.72-1.52C34.65,41.24,34.78,41.36,35,41.54Zm-15.77-18c-4.52-4.06-5-12-1.77-16.92C21.08,1.07,28,1.22,31.39,7c2.8,4.68,2.46,11.32-.83,15.41-.44.56-1,1-1.48,1.56a7.53,7.53,0,0,0-2.2,5.32c0,2,0,4.05,0,6.07a.8.8,0,0,1-.55.89,13.33,13.33,0,0,0-4.58,3.48v-6c0-1.33,0-2.66,0-4A7.58,7.58,0,0,0,19.2,23.58Zm-9.76,35c1-4.9,3.86-8.07,8.8-9.2a3.64,3.64,0,0,0,3-3c1.12-4.93,4.29-7.78,9.2-8.8a.68.68,0,0,1,.7.19c.54.55,1.11,1.07,1.7,1.62a4.23,4.23,0,0,1-2.1.93,8.83,8.83,0,0,0-5.07,2.8,9.13,9.13,0,0,0-2,4.27,5.51,5.51,0,0,1-4.47,4.45,8.48,8.48,0,0,0-7,7,4.92,4.92,0,0,1-.21.84,3.1,3.1,0,0,1-.75,1.3c-.54-.57-1.06-1.14-1.61-1.68A.66.66,0,0,1,9.44,58.59Zm-5.94,4a13.09,13.09,0,0,1,3.59-2c.26-.05.36.14.48.26.76.75,1.5,1.51,2.26,2.25a.63.63,0,0,1,.23.7,21.3,21.3,0,0,0-.79,3.81c0,.33-.14.46-.5.33a20.19,20.19,0,0,1-4.7-2.09,5.13,5.13,0,0,1-.58-.43C2.29,64.38,2.28,63.58,3.5,62.56Zm71.56,8.55A27,27,0,0,1,67.24,74,99.74,99.74,0,0,1,50,76.41a155.61,155.61,0,0,1-17.81.16c-7.74-.38-15.44-1.14-22.92-3.34A19.94,19.94,0,0,1,4,70.93a2.6,2.6,0,0,1-1.32-3A23.48,23.48,0,0,0,8,70.34,69.7,69.7,0,0,0,20.84,73,144.41,144.41,0,0,0,42,74.16c8.93-.17,17.82-.79,26.52-3a27.2,27.2,0,0,0,8.11-3.25C77.09,69.52,76.23,70.41,75.06,71.11Z" fill="#303030"/><path d="M34.62,51.16c1.21,0,1.21,0,1.21-1.18,0-1.38,0-1.38-1.34-1.38s-1.22,0-1.22,1.19C33.27,51.16,33.27,51.16,34.62,51.16Z" fill="#303030"/><path d="M41,52.44c1.2,0,1.2,0,1.2-1.2,0-1.36,0-1.36-1.37-1.36-1.19,0-1.19,0-1.19,1.2C39.67,52.44,39.67,52.44,41,52.44Z" fill="#303030"/><path d="M37.13,60.11c1.26,0,1.26,0,1.26-1.29s0-1.27-1.3-1.27-1.26,0-1.26,1.22S35.83,60.11,37.13,60.11Z" fill="#303030"/><path d="M29.35,58.83c-1.19,0-1.19,0-1.19,1.21s0,1.35,1.36,1.35c1.2,0,1.2,0,1.2-1.2C30.72,58.83,30.72,58.83,29.35,58.83Z" fill="#303030"/><path d="M24.35,64C23,64,23,64,23,65.28s0,1.23,1.25,1.23,1.31,0,1.31-1.33S25.6,64,24.35,64Z" fill="#303030"/><path d="M29.51,66.51c-1.35,0-1.35,0-1.35,1.36,0,1.2,0,1.2,1.2,1.2,1.36,0,1.36,0,1.36-1.37C30.72,66.51,30.72,66.51,29.51,66.51Z" fill="#303030"/><path d="M37.12,66.51c-1.29,0-1.29,0-1.29,1.26s0,1.3,1.27,1.3,1.29,0,1.29-1.27S38.39,66.51,37.12,66.51Z" fill="#303030"/><path d="M63.92,61.39A6.4,6.4,0,1,0,57.58,55,6.41,6.41,0,0,0,63.92,61.39ZM64,51.16A3.84,3.84,0,1,1,60.13,55,3.85,3.85,0,0,1,64,51.16Z" fill="#303030"/></g></g></g></svg>