<svg xmlns="http://www.w3.org/2000/svg" viewBox="0 0 111.02 82.91"><title>Asset 28</title><g id="Layer_2" data-name="Layer 2"><g id="Layer_1-2" data-name="Layer 1"><rect x="36.72" y="10.25" width="10.23" height="9.23" rx="1.8" ry="1.8" fill="#7e7e7e"/><rect x="51.14" y="10.25" width="10.23" height="9.23" rx="1.8" ry="1.8" fill="#7e7e7e"/><rect x="65.56" y="10.25" width="10.23" height="9.23" rx="1.8" ry="1.8" fill="#7e7e7e"/><rect x="36.72" y="24.72" width="10.23" height="9.23" rx="1.8" ry="1.8" fill="#7e7e7e"/><rect x="51.14" y="24.72" width="10.23" height="9.23" rx="1.8" ry="1.8" fill="#7e7e7e"/><rect x="65.56" y="24.72" width="10.23" height="9.23" rx="1.8" ry="1.8" fill="#7e7e7e"/><rect x="36.72" y="39.2" width="10.23" height="9.23" rx="1.8" ry="1.8" fill="#7e7e7e"/><rect x="51.14" y="39.2" width="10.23" height="9.23" rx="1.8" ry="1.8" fill="#7e7e7e"/><rect x="65.56" y="39.2" width="10.23" height="9.23" rx="1.8" ry="1.8" fill="#7e7e7e"/><rect x="87.73" y="54.08" width="10.23" height="9.23" rx="1.8" ry="1.8" fill="#7e7e7e"/><rect x="14.55" y="54.08" width="10.23" height="9.23" rx="1.8" ry="1.8" fill="#7e7e7e"/><path d="M64.53,75.88A2.48,2.48,0,0,0,67,73.4v-15a5.48,5.48,0,0,0-5.48-5.48H51a5.48,5.48,0,0,0-5.48,5.48v15a2.49,2.49,0,0,0,5,0v-15A.51.51,0,0,1,51,57.9H61.53a.51.51,0,0,1,.51.52v15A2.48,2.48,0,0,0,64.53,75.88Z" fill="#7e7e7e"/><path d="M9.72,75.88a2.48,2.48,0,0,0,2.63-2.48V49.47a1.57,1.57,0,0,1,.84-1.39L27,40.65V73.4a2.49,2.49,0,0,0,5,0V5H80.58V73.4a2.48,2.48,0,1,0,5,0V40.65l13.79,7.43a1.58,1.58,0,0,1,.83,1.39V73.32a2.54,2.54,0,0,0,2.32,2.56,2.48,2.48,0,0,0,2.64-2.48V46.5a1.59,1.59,0,0,0-.83-1.39L85.54,35V3.6A3.6,3.6,0,0,0,81.94,0H30.57A3.6,3.6,0,0,0,27,3.6V35L8.23,45.11a1.58,1.58,0,0,0-.84,1.4v26.8A2.55,2.55,0,0,0,9.72,75.88Z" fill="#7e7e7e"/><path d="M108.54,78H2.48a2.48,2.48,0,0,0,0,5H108.54a2.48,2.48,0,0,0,0-5Z" fill="#7e7e7e"/></g></g></svg>