<svg xmlns="http://www.w3.org/2000/svg" viewBox="0 0 25.86 18.49"><title>Asset 23</title><g id="Layer_2" data-name="Layer 2"><g id="Layer_1-2" data-name="Layer 1"><path d="M23.6,0H2.26A2.26,2.26,0,0,0,0,2.26v14a2.26,2.26,0,0,0,2.26,2.26H23.6a2.27,2.27,0,0,0,2.26-2.26v-14A2.26,2.26,0,0,0,23.6,0Zm1,2.26v14a.7.7,0,0,1,0,.14L16.92,9.48l7.63-7.3A.24.24,0,0,1,24.57,2.26Zm-1-1h0l-9.89,9.45a2.06,2.06,0,0,1-2.85,0L2.07,1.33a.58.58,0,0,1,.19,0ZM1.3,16.3s0-.05,0-.07V2.37l6.64,7.1Zm.93.89,6.59-6.78L10,11.64a3.33,3.33,0,0,0,4.65,0L16,10.37l7.56,6.83H2.23Z" fill="#999"/></g></g></svg>