<svg xmlns="http://www.w3.org/2000/svg" viewBox="0 0 87.11 82.91"><title>Asset 27</title><g id="Layer_2" data-name="Layer 2"><g id="Layer_1-2" data-name="Layer 1"><path d="M82.71,25.93H73.15a1.56,1.56,0,0,0-.93-2.8H60.44a1.56,1.56,0,0,0-.94,2.8h-27a6.6,6.6,0,0,0-5.15-10.74H13.65a6.55,6.55,0,0,0-4.1,1.44V4.75a4.75,4.75,0,0,0-9.5,0V51.1a1.3,1.3,0,1,0,2.59,0V4.75A2.16,2.16,0,0,1,7,4.75V34.27a1.3,1.3,0,1,0,2.59,0V28.52H31.91V42.88a6.89,6.89,0,0,0,6.88,6.89H84.52v7.38H28.1a1.42,1.42,0,0,0,0,2.84H77.52v3.79a1.79,1.79,0,0,0,1.79,1.78h6a1.78,1.78,0,0,0,1.78-1.78V30.33A4.4,4.4,0,0,0,82.71,25.93ZM13.65,17.78H27.37a4,4,0,1,1,0,8H13.65a4,4,0,0,1,0-8ZM38.79,46.92a4,4,0,0,1-4-4V28.52H82.71a1.81,1.81,0,0,1,1.81,1.81V46.92ZM84.52,63H80.11V60.61h4.41V63Z" fill="#7e7e7e"/><path d="M48.23,32.52h-.69a1.5,1.5,0,0,0,0,3h.69a1.5,1.5,0,0,0,0-3Z" fill="#7e7e7e"/><path d="M42.5,39.79h-.69a1.5,1.5,0,0,0,0,3h.69a1.5,1.5,0,0,0,0-3Z" fill="#7e7e7e"/><path d="M54,39.79h-.69a1.5,1.5,0,0,0,0,3H54a1.5,1.5,0,0,0,0-3Z" fill="#7e7e7e"/><path d="M65.55,39.79h-.69a1.5,1.5,0,0,0,0,3h.69a1.5,1.5,0,0,0,0-3Z" fill="#7e7e7e"/><path d="M77.07,39.79h-.69a1.5,1.5,0,0,0,0,3h.69a1.5,1.5,0,0,0,0-3Z" fill="#7e7e7e"/><path d="M59.76,32.52h-.69a1.5,1.5,0,0,0,0,3h.69a1.5,1.5,0,0,0,0-3Z" fill="#7e7e7e"/><path d="M71.28,32.52h-.69a1.5,1.5,0,0,0,0,3h.69a1.5,1.5,0,0,0,0-3Z" fill="#7e7e7e"/><path d="M24.34,48.49l-4.25-9.33a1.63,1.63,0,0,0-1.49-1H12.26a1.61,1.61,0,0,0-1.48,1L6.56,48.49A1.63,1.63,0,0,0,8.05,50.8h2.53a5.7,5.7,0,0,0-.51,2.37,5.86,5.86,0,0,0,.68,2.75h-9A1.71,1.71,0,0,0,0,57.63V81.2a1.72,1.72,0,0,0,1.72,1.71h21A1.72,1.72,0,0,0,24.4,81.2V57.63a1.71,1.71,0,0,0-1.72-1.71H19.91a5.75,5.75,0,0,0,.69-2.75,5.86,5.86,0,0,0-.51-2.37h2.76A1.64,1.64,0,0,0,24.34,48.49ZM21.41,64H14.73a1.68,1.68,0,1,0,0,3.36h6.68v4.08H14.73a1.69,1.69,0,0,0,0,3.37h6.68v4.79H3V59.22H21.41ZM17.49,53.17a2.34,2.34,0,0,1-2.16,2.47,2.34,2.34,0,0,1-2.16-2.47,2.42,2.42,0,0,1,1.61-2.37h1.11A2.43,2.43,0,0,1,17.49,53.17Zm-6.71-5.71,2.68-5.92h4l2.69,5.92Z" fill="#7e7e7e"/></g></g></svg>