<svg xmlns="http://www.w3.org/2000/svg" viewBox="0 0 22.39 24.9"><title>Asset 10</title><g id="Layer_2" data-name="Layer 2"><g id="Layer_1-2" data-name="Layer 1"><path d="M11,24.9a4.77,4.77,0,0,1-4.66-3.84A.63.63,0,0,1,7,20.31h8.09a.63.63,0,0,1,.62.75,3.78,3.78,0,0,1-.24.81,4.21,4.21,0,0,1-.49.94A4.76,4.76,0,0,1,11,24.9ZM7.83,21.57a3.5,3.5,0,0,0,6.09.54,2.86,2.86,0,0,0,.3-.54Z"/><path d="M5.91,11.09a.63.63,0,0,1-.62-.56c0-.2,0-.41,0-.61a5.92,5.92,0,0,1,4.8-5.81.63.63,0,0,1,.74.5.63.63,0,0,1-.5.73A4.66,4.66,0,0,0,6.51,9.92a3.87,3.87,0,0,0,0,.48.64.64,0,0,1-.56.69Z"/><path d="M20.83,21.57H1.55A1.54,1.54,0,0,1,0,20.11a2.17,2.17,0,0,1,0-.26,4.79,4.79,0,0,1,2.32-4.08.65.65,0,0,0,.32-.56l.1-6.29A7.61,7.61,0,0,1,9.43,1.59a1.88,1.88,0,0,1,3.72,0A8.37,8.37,0,0,1,17.6,3.88a7.06,7.06,0,0,1,2.21,5.05h0l-.07,6.26a.71.71,0,0,0,.33.59,4.76,4.76,0,0,1,2.32,4.07,1.69,1.69,0,0,1,0,.23A1.55,1.55,0,0,1,20.83,21.57ZM11.29,1.25h0a.61.61,0,0,0-.59.55.5.5,0,0,0,0,.21.61.61,0,0,1-.11.51.63.63,0,0,1-.47.25A6.38,6.38,0,0,0,4,8.93H4L3.9,15.23A1.9,1.9,0,0,1,3,16.85a3.53,3.53,0,0,0-1.71,3c0,.07,0,.13,0,.19a.29.29,0,0,0,.29.27H20.83a.3.3,0,0,0,.3-.29v-.17a3.46,3.46,0,0,0-1.7-3,1.92,1.92,0,0,1-.94-1.67l.07-6.26a6.53,6.53,0,0,0-6.1-6.12A.66.66,0,0,1,12,2.54.64.64,0,0,1,11.9,2a.59.59,0,0,0,0-.14.61.61,0,0,0-.2-.45A.64.64,0,0,0,11.29,1.25Z"/></g></g></svg>