<svg xmlns="http://www.w3.org/2000/svg" viewBox="0 0 260.95 152.82"><title>Asset 6</title><g id="Layer_2" data-name="Layer 2"><g id="Layer_1-2" data-name="Layer 1"><rect y="50.11" width="130.48" height="22.69" rx="10.21" ry="10.21" fill="#dff7ff"/><rect x="65.24" y="72.8" width="130.48" height="22.69" rx="10.21" ry="10.21" fill="#dff7ff"/><rect x="130.48" y="95.49" width="130.48" height="22.69" rx="10.21" ry="10.21" fill="#dff7ff"/><path d="M22.77,120.83a4,4,0,1,1,4.05-4A4.05,4.05,0,0,1,22.77,120.83Zm0-6.62a2.57,2.57,0,1,0,2.57,2.57A2.57,2.57,0,0,0,22.77,114.21Z" fill="#00cfff"/><path d="M85.57,152.82a4.05,4.05,0,1,1,4.05-4A4,4,0,0,1,85.57,152.82Zm0-6.62a2.57,2.57,0,1,0,2.57,2.57A2.58,2.58,0,0,0,85.57,146.2Z" fill="#00cfff"/><path d="M203.86,19.61a4.05,4.05,0,1,1,4-4A4,4,0,0,1,203.86,19.61Zm0-6.62a2.57,2.57,0,1,0,2.57,2.57A2.58,2.58,0,0,0,203.86,13Z" fill="#00cfff"/><path d="M69.4,5.14A2.57,2.57,0,1,1,72,2.57,2.58,2.58,0,0,1,69.4,5.14Zm0-4.2A1.63,1.63,0,1,0,71,2.57,1.63,1.63,0,0,0,69.4.94Z" fill="#00cfff"/><path d="M167.76,30.4a2.57,2.57,0,1,1,2.57-2.56A2.57,2.57,0,0,1,167.76,30.4Zm0-4.19a1.63,1.63,0,1,0,1.63,1.63A1.63,1.63,0,0,0,167.76,26.21Z" fill="#00cfff"/><path d="M64.38,117a1.53,1.53,0,1,1,1.53-1.52A1.52,1.52,0,0,1,64.38,117Zm0-2.49a1,1,0,1,0,1,1A1,1,0,0,0,64.38,114.5Z" fill="#00cfff"/><path d="M119.3,11.14a.62.62,0,0,1-.38-.28l-3.8-6.29a.61.61,0,1,1,1-.62l3.8,6.29a.6.6,0,0,1-.2.83A.59.59,0,0,1,119.3,11.14Z" fill="#00cfff"/><path d="M114.25,9.9a.61.61,0,0,1-.37-.28.59.59,0,0,1,.2-.83L120.37,5a.62.62,0,0,1,.84.21A.6.6,0,0,1,121,6l-6.29,3.81A.68.68,0,0,1,114.25,9.9Z" fill="#00cfff"/><path d="M32.34,29.73a.43.43,0,0,1-.25-.19l-2.57-4.25a.41.41,0,1,1,.7-.43l2.57,4.26a.4.4,0,0,1-.14.56A.42.42,0,0,1,32.34,29.73Z" fill="#00cfff"/><path d="M28.93,28.89a.45.45,0,0,1-.26-.19.42.42,0,0,1,.14-.56l4.26-2.58a.41.41,0,0,1,.42.71l-4.25,2.57A.43.43,0,0,1,28.93,28.89Z" fill="#00cfff"/><path d="M219.92,56.54a.6.6,0,0,1-.26-.39L218.2,49a.61.61,0,0,1,.47-.72.62.62,0,0,1,.72.48l1.46,7.2a.61.61,0,0,1-.47.72A.61.61,0,0,1,219.92,56.54Z" fill="#00cfff"/><path d="M215.59,53.67a.6.6,0,0,1-.26-.39.59.59,0,0,1,.47-.71L223,51.11a.59.59,0,0,1,.71.47.61.61,0,0,1-.47.72L216,53.76A.64.64,0,0,1,215.59,53.67Z" fill="#00cfff"/><path d="M193.87,145.77a.63.63,0,0,1,0-.47l2.27-7a.6.6,0,0,1,.76-.39.59.59,0,0,1,.39.76l-2.26,7a.61.61,0,0,1-1.12.09Z" fill="#00cfff"/><path d="M191.51,141.14a.57.57,0,0,1,0-.46.61.61,0,0,1,.76-.4l7,2.27a.61.61,0,1,1-.38,1.15l-7-2.26A.58.58,0,0,1,191.51,141.14Z" fill="#00cfff"/><circle cx="128.52" cy="79.11" r="44.42" fill="#afecff"/><path d="M128.52,125.91a46.8,46.8,0,1,1,46.8-46.8A46.85,46.85,0,0,1,128.52,125.91Zm0-88.84a42,42,0,1,0,42,42A42.09,42.09,0,0,0,128.52,37.07Z" fill="#bcbcbc"/><ellipse cx="112.12" cy="70.68" rx="5.55" ry="8.43" fill="#878787"/><path d="M152.08,77c0-4.71-3.81-6.94-8.52-6.94S135,72.28,135,77Z" fill="#878787"/><path d="M101.38,65.07a.67.67,0,0,1-.2,0,.83.83,0,0,1-.74-.91,11.36,11.36,0,0,1,12.48-10.08.83.83,0,0,1,.73.91.82.82,0,0,1-.91.74,9.7,9.7,0,0,0-10.65,8.6A.83.83,0,0,1,101.38,65.07Z" fill="#878787"/><path d="M137.38,66.56a.93.93,0,0,1-.14-.14.83.83,0,0,1,.14-1.18,11.48,11.48,0,0,1,16.09,1.94.83.83,0,0,1-.15,1.17.82.82,0,0,1-1.17-.14,9.8,9.8,0,0,0-13.74-1.65A.84.84,0,0,1,137.38,66.56Z" fill="#878787"/><path d="M151.07,94.19a22.81,22.81,0,0,1-45,0h0a160.91,160.91,0,0,0,45,0Z" fill="#878787"/></g></g></svg>