<svg xmlns="http://www.w3.org/2000/svg" viewBox="0 0 260.95 152.82"><title>Asset 7</title><g id="Layer_2" data-name="Layer 2"><g id="Layer_1-2" data-name="Layer 1"><rect y="50.11" width="130.48" height="22.69" rx="10.21" ry="10.21" fill="#dff7ff"/><rect x="65.24" y="72.8" width="130.48" height="22.69" rx="10.21" ry="10.21" fill="#dff7ff"/><rect x="130.48" y="95.49" width="130.48" height="22.69" rx="10.21" ry="10.21" fill="#dff7ff"/><circle cx="113.66" cy="78.77" r="35.22" fill="#afecff"/><path d="M113.66,115.47a36.7,36.7,0,1,1,36.69-36.7A36.73,36.73,0,0,1,113.66,115.47Zm0-70.44A33.75,33.75,0,1,0,147.4,78.77,33.78,33.78,0,0,0,113.66,45Z" fill="#bcbcbc"/><path d="M141.68,72.16a1.46,1.46,0,0,1-1.41-1.07c-.19-.63-.4-1.27-.63-1.89A27.83,27.83,0,0,0,119,51.6a1.47,1.47,0,1,1,.56-2.89,30.79,30.79,0,0,1,22.86,19.47c.25.68.49,1.39.69,2.1a1.47,1.47,0,0,1-1,1.82A1.4,1.4,0,0,1,141.68,72.16Z" fill="#bcbcbc"/><path d="M164.44,134.26a3.28,3.28,0,0,1-2.34-1L136.61,107.8a3.32,3.32,0,0,1,4.69-4.69l25.49,25.49a3.32,3.32,0,0,1-2.35,5.66Z" fill="#bcbcbc"/><path d="M22.77,120.83a4,4,0,1,1,4.05-4A4.05,4.05,0,0,1,22.77,120.83Zm0-6.62a2.57,2.57,0,1,0,2.57,2.57A2.57,2.57,0,0,0,22.77,114.21Z" fill="#00cfff"/><path d="M85.57,152.82a4.05,4.05,0,1,1,4.05-4A4,4,0,0,1,85.57,152.82Zm0-6.62a2.57,2.57,0,1,0,2.57,2.57A2.58,2.58,0,0,0,85.57,146.2Z" fill="#00cfff"/><path d="M203.86,19.61a4.05,4.05,0,1,1,4-4A4,4,0,0,1,203.86,19.61Zm0-6.62a2.57,2.57,0,1,0,2.57,2.57A2.58,2.58,0,0,0,203.86,13Z" fill="#00cfff"/><path d="M69.4,5.14A2.57,2.57,0,1,1,72,2.57,2.58,2.58,0,0,1,69.4,5.14Zm0-4.2A1.63,1.63,0,1,0,71,2.57,1.63,1.63,0,0,0,69.4.94Z" fill="#00cfff"/><path d="M167.76,30.4a2.57,2.57,0,1,1,2.57-2.56A2.57,2.57,0,0,1,167.76,30.4Zm0-4.19a1.63,1.63,0,1,0,1.63,1.63A1.63,1.63,0,0,0,167.76,26.21Z" fill="#00cfff"/><path d="M64.38,117a1.53,1.53,0,1,1,1.53-1.52A1.52,1.52,0,0,1,64.38,117Zm0-2.49a1,1,0,1,0,1,1A1,1,0,0,0,64.38,114.5Z" fill="#00cfff"/><path d="M119.3,11.14a.62.62,0,0,1-.38-.28l-3.8-6.29a.61.61,0,1,1,1-.62l3.8,6.29a.6.6,0,0,1-.2.83A.59.59,0,0,1,119.3,11.14Z" fill="#00cfff"/><path d="M114.25,9.9a.61.61,0,0,1-.37-.28.59.59,0,0,1,.2-.83L120.37,5a.62.62,0,0,1,.84.21A.6.6,0,0,1,121,6l-6.29,3.81A.68.68,0,0,1,114.25,9.9Z" fill="#00cfff"/><path d="M32.34,29.73a.43.43,0,0,1-.25-.19l-2.57-4.25a.41.41,0,1,1,.7-.43l2.57,4.26a.4.4,0,0,1-.14.56A.42.42,0,0,1,32.34,29.73Z" fill="#00cfff"/><path d="M28.93,28.89a.45.45,0,0,1-.26-.19.42.42,0,0,1,.14-.56l4.26-2.58a.41.41,0,0,1,.42.71l-4.25,2.57A.43.43,0,0,1,28.93,28.89Z" fill="#00cfff"/><path d="M219.92,56.54a.6.6,0,0,1-.26-.39L218.2,49a.61.61,0,0,1,.47-.72.62.62,0,0,1,.72.48l1.46,7.2a.61.61,0,0,1-.47.72A.61.61,0,0,1,219.92,56.54Z" fill="#00cfff"/><path d="M215.59,53.67a.6.6,0,0,1-.26-.39.59.59,0,0,1,.47-.71L223,51.11a.59.59,0,0,1,.71.47.61.61,0,0,1-.47.72L216,53.76A.64.64,0,0,1,215.59,53.67Z" fill="#00cfff"/><path d="M193.87,145.77a.63.63,0,0,1,0-.47l2.27-7a.6.6,0,0,1,.76-.39.59.59,0,0,1,.39.76l-2.26,7a.61.61,0,0,1-1.12.09Z" fill="#00cfff"/><path d="M191.51,141.14a.57.57,0,0,1,0-.46.61.61,0,0,1,.76-.4l7,2.27a.61.61,0,1,1-.38,1.15l-7-2.26A.58.58,0,0,1,191.51,141.14Z" fill="#00cfff"/></g></g></svg>