<svg xmlns="http://www.w3.org/2000/svg" viewBox="0 0 97.52 105.44"><title>Asset 7</title><g id="Layer_2" data-name="Layer 2"><g id="Layer_1-2" data-name="Layer 1"><path d="M89.09,74.51H8.43A8.43,8.43,0,0,1,6.5,57.88,23.47,23.47,0,0,1,29.86,36.22h2A3.22,3.22,0,0,0,35.07,33V30a3.27,3.27,0,0,1,3.27-3.27h1.75V17.9A17.91,17.91,0,0,1,58,0H80.85a5.27,5.27,0,0,1,5.26,5.26v5.55a5.27,5.27,0,0,1-5.26,5.27H60.39a4.23,4.23,0,0,0-4.23,4.23v6.37H58A3.27,3.27,0,0,1,61.28,30V33a3.22,3.22,0,0,0,3.22,3.22h3.16A23.47,23.47,0,0,1,91,57.88a8.43,8.43,0,0,1-1.93,16.63ZM8.43,61.66a4.43,4.43,0,1,0,0,8.85H89.09a4.43,4.43,0,1,0,0-8.85h-2v-2A19.46,19.46,0,0,0,67.66,40.22H64.5A7.22,7.22,0,0,1,57.28,33V30.68H52.16V20.31a8.24,8.24,0,0,1,8.23-8.23H80.85a1.27,1.27,0,0,0,1.26-1.27V5.26A1.27,1.27,0,0,0,80.85,4H58A13.91,13.91,0,0,0,44.09,17.9V30.68h-5V33a7.22,7.22,0,0,1-7.22,7.22h-2A19.46,19.46,0,0,0,10.43,59.66v2Z"/><path d="M50.9,61.66H8.43a2,2,0,0,1,0-4H50.9a2,2,0,1,1,0,4Z"/><path d="M40.19,105.44a2,2,0,0,1-2-2V79.29a2,2,0,0,1,4,0v24.15A2,2,0,0,1,40.19,105.44Z"/><path d="M54.41,105.44a2,2,0,0,1-2-2V79.29a2,2,0,1,1,4,0v24.15A2,2,0,0,1,54.41,105.44Z"/><path d="M76.64,102.53a2,2,0,0,1-1.76-1L63.37,80.24a2,2,0,0,1,3.51-1.91L78.4,99.57a2,2,0,0,1-.81,2.71A1.93,1.93,0,0,1,76.64,102.53Z"/><path d="M17.19,102.53a2,2,0,0,1-1-.25,2,2,0,0,1-.8-2.71L27,78.33a2,2,0,0,1,3.52,1.91L19,101.48A2,2,0,0,1,17.19,102.53Z"/></g></g></svg>