<svg xmlns="http://www.w3.org/2000/svg" viewBox="0 0 99.15 113.31"><title>Asset 4</title><g id="Layer_2" data-name="Layer 2"><g id="Layer_1-2" data-name="Layer 1"><path d="M56.55,88.93a1,1,0,0,0-1.83.39L52.15,105a7.19,7.19,0,0,0,7.1,8.36,6.86,6.86,0,0,0,1.49-.16,7.19,7.19,0,0,0,4.52-11Zm7.5,19.16a5.19,5.19,0,0,1-9.92-2.81l2.15-13.11,7.3,11.1A5.11,5.11,0,0,1,64.05,108.09Z"/><path d="M72.81,72.41A1,1,0,0,0,71,72.8L68.42,88.44a7.18,7.18,0,0,0,7.09,8.35,7.63,7.63,0,0,0,1.5-.15,7.19,7.19,0,0,0,4.51-11Zm7.51,19.17a5.2,5.2,0,0,1-9.93-2.82l2.16-13.11,7.3,11.1A5.13,5.13,0,0,1,80.32,91.58Z"/><path d="M89,76.2h0a6.21,6.21,0,0,0,3.89-9.49L85.59,55.57a1,1,0,0,0-1.83.39L81.6,69.11a6.21,6.21,0,0,0,6.13,7.22A6.27,6.27,0,0,0,89,76.2Zm-4.2-3a4.14,4.14,0,0,1-1.25-3.72l1.75-10.63,5.92,9a4.2,4.2,0,0,1-6.42,5.35Z"/><path d="M98.13,98.32,90.8,87.18a1,1,0,0,0-1.83.39l-2.16,13.16a6.21,6.21,0,0,0,6.13,7.21,6.27,6.27,0,0,0,1.29-.13,6.22,6.22,0,0,0,3.9-9.49Zm-1.3,5a4.2,4.2,0,0,1-8-2.28l1.74-10.63,5.92,9A4.13,4.13,0,0,1,96.83,103.33Z"/><path d="M60.18,63.36a1,1,0,0,0-1.87.4L57.15,76.7a7.26,7.26,0,0,0,2.29,6A4.86,4.86,0,0,0,62.66,84a4,4,0,0,0,.91-.1,4.65,4.65,0,0,0,3.29-2.79,7.23,7.23,0,0,0-.36-6.41Zm4.86,17a2.56,2.56,0,0,1-4.28.91,5.29,5.29,0,0,1-1.62-4.34L60,67.17l4.75,8.52A5.25,5.25,0,0,1,65,80.31Z"/><path d="M87.56,29.53A29.47,29.47,0,0,0,58.26.09C56.87,0,42.81-1.16,28.57,10.36,12.69,23.2,3.08,46.21,0,78.74a2,2,0,0,0,1.8,2.18H2a2,2,0,0,0,2-1.82C7,47.76,16,25.7,31,13.55,44.34,2.7,57.76,4.06,57.89,4.08h.23A25.44,25.44,0,1,1,37,43.75,2,2,0,0,0,33.71,46a29.42,29.42,0,0,0,14.63,11.3C26.74,66,13.55,95.12,12.92,96.53a2,2,0,1,0,3.65,1.62C16.74,97.78,33.39,61,58.26,59A29.47,29.47,0,0,0,87.56,29.53Z"/><path d="M65.29,49.91A14.27,14.27,0,0,0,79.54,35.66V33.78A14.26,14.26,0,0,0,65.29,19.53H57.24A14.26,14.26,0,0,0,43,33.78v1.88A14.27,14.27,0,0,0,57.24,49.91ZM46,35.66V33.78A11.27,11.27,0,0,1,57.24,22.53h8.05A11.27,11.27,0,0,1,76.54,33.78v1.88A11.27,11.27,0,0,1,65.29,46.91H57.24A11.27,11.27,0,0,1,46,35.66Z"/><path d="M63.73,44.1a8.82,8.82,0,0,0,8.8-8.81V34.14a8.81,8.81,0,0,0-8.8-8.8H58.8a8.81,8.81,0,0,0-8.8,8.8v1.15a8.82,8.82,0,0,0,8.8,8.81ZM52,35.29V34.14a6.81,6.81,0,0,1,6.8-6.8h4.93a6.81,6.81,0,0,1,6.8,6.8v1.15a6.82,6.82,0,0,1-6.8,6.81H58.8A6.82,6.82,0,0,1,52,35.29Z"/></g></g></svg>