<svg xmlns="http://www.w3.org/2000/svg" viewBox="0 0 129.12 91.18"><title>Asset 6</title><g id="Layer_2" data-name="Layer 2"><g id="Layer_1-2" data-name="Layer 1"><path d="M124.74,40.83H89.38A4.4,4.4,0,0,1,85,36.44V24.13a2.46,2.46,0,0,0-1.65-2.33L52.79,11.16A5.74,5.74,0,0,1,55.42.05l69,9.09a5.4,5.4,0,0,1,4.68,5.34v22A4.39,4.39,0,0,1,124.74,40.83ZM54.68,2.92a2.82,2.82,0,0,0-.93,5.48L84.3,19a5.4,5.4,0,0,1,3.62,5.09V36.44a1.46,1.46,0,0,0,1.46,1.46h35.36a1.46,1.46,0,0,0,1.46-1.46v-22A2.47,2.47,0,0,0,124.06,12L55,3A2.19,2.19,0,0,0,54.68,2.92Z"/><path d="M124.74,91.18H87.8a4.4,4.4,0,0,1-4.39-4.39V81.08a.9.9,0,0,0-.47-.79L39.45,56.89a65.67,65.67,0,0,0-31-7.82,8.42,8.42,0,1,1,0-16.83h11.4a68,68,0,0,1,25.25,4.83L82.49,51.93a.88.88,0,0,0,1.21-.83V49.37A4.39,4.39,0,0,1,88.09,45h36.65a4.38,4.38,0,0,1,4.38,4.38V86.79A4.39,4.39,0,0,1,124.74,91.18ZM8.42,35.16a5.5,5.5,0,1,0,0,11,68.66,68.66,0,0,1,32.41,8.16l43.5,23.41a3.81,3.81,0,0,1,2,3.36v5.71a1.46,1.46,0,0,0,1.46,1.47h36.94a1.47,1.47,0,0,0,1.46-1.47V49.37a1.47,1.47,0,0,0-1.46-1.46H88.09a1.46,1.46,0,0,0-1.46,1.46V51.1a3.81,3.81,0,0,1-5.22,3.54L44,39.78a65.39,65.39,0,0,0-24.17-4.62Z"/><path d="M12.62,80.12a7,7,0,0,1-5.8-3.06,6.67,6.67,0,0,1-.7-6.31l6.5-16.32,6.5,16.32a6.67,6.67,0,0,1-.69,6.31A7,7,0,0,1,12.62,80.12Zm0-20.46L7.92,71.47a4.76,4.76,0,0,0,.5,4.5,5.11,5.11,0,0,0,8.41,0,4.73,4.73,0,0,0,.49-4.5Z"/><path d="M17.64,52.83h-.15L8.7,52.3a2.63,2.63,0,0,1-2.47-2.79l.16-2.68,14,.83-.16,2.69A2.63,2.63,0,0,1,17.64,52.83ZM8.45,49.14l0,.51a.43.43,0,0,0,.41.46l8.79.52a.44.44,0,0,0,.46-.41l0-.5Z"/></g></g></svg>