<svg xmlns="http://www.w3.org/2000/svg" viewBox="0 0 91.85 115.5"><title>Asset 8</title><g id="Layer_2" data-name="Layer 2"><g id="Layer_1-2" data-name="Layer 1"><path d="M86.05,54.83H70.8a9.15,9.15,0,0,0-17.87,0H48.5V45.15H77.14A7.85,7.85,0,0,0,85,37.31V7.85A7.86,7.86,0,0,0,77.14,0H18.31a7.86,7.86,0,0,0-7.85,7.85V37.31a7.85,7.85,0,0,0,7.85,7.84H40.52v9.68H36.69a9.15,9.15,0,0,0-17.87,0h-13a5.81,5.81,0,1,0,0,11.61H9.28A39.67,39.67,0,0,0,36.7,92.55v17.18a5.78,5.78,0,0,0,5.77,5.77h8.22a5.78,5.78,0,0,0,5.77-5.77v-17A39.67,39.67,0,0,0,84.53,66.44h1.52a5.81,5.81,0,0,0,0-11.61ZM61.86,50.19a6.64,6.64,0,0,1,6.32,4.64H55.54A6.64,6.64,0,0,1,61.86,50.19ZM18.31,41.61a4.31,4.31,0,0,1-4.3-4.3V7.85a4.31,4.31,0,0,1,4.3-4.31H77.14a4.31,4.31,0,0,1,4.31,4.31V37.31a4.31,4.31,0,0,1-4.31,4.3H48.5V33.23a1.36,1.36,0,0,1,1.36-1.36H60.23a1.25,1.25,0,0,1,1.25,1.25v4.74a2.36,2.36,0,0,0,2.36,2.36h1.84A2.36,2.36,0,0,0,68,37.86V30.5A5.08,5.08,0,0,0,63,25.42H44.73a4.21,4.21,0,0,0-4.21,4.21v12ZM60.23,29.84H49.86a3.38,3.38,0,0,0-3.38,3.39v8.38H42.54v-12a2.19,2.19,0,0,1,2.19-2.18H63A3.06,3.06,0,0,1,66,30.5v7.36a.34.34,0,0,1-.33.34H63.84a.34.34,0,0,1-.33-.34V33.12A3.28,3.28,0,0,0,60.23,29.84ZM42.54,45.15h3.94v9.68H42.54Zm-14.78,5a6.64,6.64,0,0,1,6.32,4.64H21.43A6.64,6.64,0,0,1,27.76,50.19Zm25.15,59.54A2.23,2.23,0,0,1,50.69,112H42.47a2.23,2.23,0,0,1-2.22-2.22V93.34a39.64,39.64,0,0,0,6.66.57,38.54,38.54,0,0,0,6-.47Zm-6-19.36A36.09,36.09,0,0,1,13,66.44H80.79A36.08,36.08,0,0,1,46.91,90.37ZM86.05,62.89H5.81a2.26,2.26,0,1,1,0-4.52H86.05a2.26,2.26,0,0,1,0,4.52Z"/><path d="M43.16,9.27h0a0,0,0,0,0,0-.06,0,0,0,0,0-.07,0L32.56,19.65,22.11,30.18a0,0,0,1,0,.06.08h0c1-.73,1.94-1.55,2.92-2.32s1.88-1.62,2.8-2.45S29.72,23.8,30.62,23l2.66-2.59,2.59-2.66c.84-.9,1.7-1.79,2.52-2.72s1.65-1.85,2.45-2.8S42.43,10.28,43.16,9.27Z"/><path d="M22.85,23.27h0a32.81,32.81,0,0,0,3.8-2.86c.62-.5,1.18-1,1.77-1.56l1.7-1.63,1.63-1.7c.52-.59,1.06-1.15,1.56-1.76A32.93,32.93,0,0,0,36.18,10h0a.06.06,0,0,0,0-.06.06.06,0,0,0-.08,0L29.41,16.5l-6.62,6.7a.06.06,0,0,0,0,.06A0,0,0,0,0,22.85,23.27Z"/><path d="M23.28,16.54h0a8,8,0,0,0,2-1.06c.31-.2.58-.45.87-.67s.53-.49.8-.73l.73-.8c.22-.29.47-.56.67-.87a8,8,0,0,0,1.06-2v0a.07.07,0,0,0,0,0,0,0,0,0,0-.07,0l-3.11,3-3,3.11s0,0,0,.05S23.25,16.55,23.28,16.54Z"/></g></g></svg>