<svg xmlns="http://www.w3.org/2000/svg" viewBox="0 0 205.72 176.75"><title>Asset 3</title><g id="Layer_2" data-name="Layer 2"><g id="Layer_1-2" data-name="Layer 1"><path d="M143.76.14V0h0a7.91,7.91,0,0,1-7.95,7.22v0a7.85,7.85,0,0,1,7.59,7.49h0a8,8,0,0,1,8-6.95h0A7.86,7.86,0,0,1,143.76.14Z" fill="#00fff8"/><path d="M8,46.48v-.14H8A7.89,7.89,0,0,1,0,53.56v0a7.85,7.85,0,0,1,7.59,7.48h0a8,8,0,0,1,8-7h0A7.86,7.86,0,0,1,8,46.48Z" fill="#00fff8"/><path d="M193.62,69.48a1.62,1.62,0,0,1,0-.22h0A12.61,12.61,0,0,1,181.07,81v0a12.56,12.56,0,0,1,12,12.14h.05a12.66,12.66,0,0,1,12.63-11.27h0A12.58,12.58,0,0,1,193.62,69.48Z" fill="#00fff8"/><path d="M24,120.9a.49.49,0,0,1,0-.12h0a6.41,6.41,0,0,1-6.3,6.07v0a6.43,6.43,0,0,1,6,6.3h0A6.42,6.42,0,0,1,30,127.32h0A6.44,6.44,0,0,1,24,120.9Z" fill="#00fff8"/><path d="M148.27,168.48a.25.25,0,0,1,0-.08h0a4.33,4.33,0,0,1-4.25,4.1h0a4.32,4.32,0,0,1,4,4.24h0a4.35,4.35,0,0,1,4.28-3.94h0A4.34,4.34,0,0,1,148.27,168.48Z" fill="#00fff8"/><path d="M172.58,92.66l-5.48-2.9a.54.54,0,0,1,0-.94l5.3-3.24a.54.54,0,0,0-.09-1l-5.77-2.26a.53.53,0,0,1-.13-.92l4.89-3.83a.54.54,0,0,0-.19-1l-6-1.58a.54.54,0,0,1-.24-.91l4.43-4.36a.54.54,0,0,0-.31-.92L162.85,68a.54.54,0,0,1-.34-.87l3.91-4.84a.55.55,0,0,0-.41-.88l-6.19-.18a.54.54,0,0,1-.44-.83l3.33-5.25a.54.54,0,0,0-.51-.82l-6.17.52a.54.54,0,0,1-.53-.77l2.71-5.6a.54.54,0,0,0-.6-.76l-6.07,1.22a.55.55,0,0,1-.62-.71L153,42.37a.54.54,0,0,0-.67-.69l-5.89,1.9a.54.54,0,0,1-.7-.63l1.37-6.06a.54.54,0,0,0-.75-.61l-5.64,2.56a.54.54,0,0,1-.76-.55l.67-6.17a.53.53,0,0,0-.81-.52l-5.31,3.19a.54.54,0,0,1-.82-.46l0-6.22a.54.54,0,0,0-.87-.42l-4.91,3.77a.53.53,0,0,1-.86-.35l-.75-6.18a.54.54,0,0,0-.91-.32l-4.45,4.31a.54.54,0,0,1-.9-.26l-1.45-6a.54.54,0,0,0-.94-.22l-3.93,4.79a.54.54,0,0,1-.92-.15L110.6,21.2a.53.53,0,0,0-1-.11l-3.36,5.2a.53.53,0,0,1-.93-.05l-2.78-5.55a.53.53,0,0,0-1,0l-2.75,5.55a.53.53,0,0,1-.93.06l-3.4-5.21a.54.54,0,0,0-1,.11L91.49,27a.55.55,0,0,1-.93.16l-4-4.79a.54.54,0,0,0-.94.23l-1.42,6a.53.53,0,0,1-.89.26l-4.49-4.3A.54.54,0,0,0,78,25l-.71,6.15a.54.54,0,0,1-.86.37l-4.95-3.76a.54.54,0,0,0-.87.42v6.2a.53.53,0,0,1-.81.46L64.4,31.63a.54.54,0,0,0-.81.52l.69,6.16a.53.53,0,0,1-.75.55l-5.67-2.54a.54.54,0,0,0-.75.61l1.4,6a.54.54,0,0,1-.69.64l-5.93-1.88a.54.54,0,0,0-.67.69l2.07,5.84a.54.54,0,0,1-.61.71l-6.1-1.19a.53.53,0,0,0-.58.76l2.72,5.57a.54.54,0,0,1-.52.77L42,54.38a.54.54,0,0,0-.5.83l3.35,5.22a.53.53,0,0,1-.44.82l-6.21.22a.54.54,0,0,0-.4.88l3.92,4.81a.54.54,0,0,1-.34.87L35.23,69a.54.54,0,0,0-.29.92l4.43,4.33a.53.53,0,0,1-.23.9l-6,1.62a.54.54,0,0,0-.19,1l4.9,3.79a.54.54,0,0,1-.13.93l-5.78,2.29a.54.54,0,0,0-.08,1l5.3,3.21a.54.54,0,0,1,0,.94l-5.48,2.93a.54.54,0,0,0,0,1l5.63,2.58a.53.53,0,0,1,.08.93l-5.1,3.54a.54.54,0,0,0,.13,1l5.9,1.92a.55.55,0,0,1,.19.92l-4.68,4.1a.54.54,0,0,0,.25.93l6.07,1.24a.54.54,0,0,1,.29.89l-4.17,4.61a.54.54,0,0,0,.35.9l6.17.54a.54.54,0,0,1,.4.85l-3.62,5.05a.53.53,0,0,0,.45.85l6.19-.17a.55.55,0,0,1,.49.81l-3,5.43a.53.53,0,0,0,.55.79l6.13-.87a.54.54,0,0,1,.57.74L48.56,137a.54.54,0,0,0,.63.73l6-1.57a.55.55,0,0,1,.66.67l-1.72,6a.54.54,0,0,0,.72.65l5.77-2.24a.54.54,0,0,1,.73.59l-1,6.13a.54.54,0,0,0,.78.57l5.49-2.88a.53.53,0,0,1,.78.5l-.31,6.2a.54.54,0,0,0,.84.48L73,149.29a.53.53,0,0,1,.84.41l.4,6.2a.54.54,0,0,0,.89.38l4.69-4.05a.53.53,0,0,1,.88.31l1.1,6.12a.54.54,0,0,0,.93.27L87,154.37a.55.55,0,0,1,.92.2l1.79,6a.54.54,0,0,0,1,.16l3.65-5a.54.54,0,0,1,.93.11l2.46,5.71a.53.53,0,0,0,1,.05l3-5.39a.54.54,0,0,1,.94,0l3.09,5.39a.54.54,0,0,0,1-.06l2.43-5.7a.54.54,0,0,1,.93-.11l3.68,5a.54.54,0,0,0,1-.16l1.76-6a.53.53,0,0,1,.91-.21l4.23,4.55a.55.55,0,0,0,.93-.27l1.06-6.11a.54.54,0,0,1,.88-.31l4.73,4a.54.54,0,0,0,.89-.37l.36-6.19a.54.54,0,0,1,.84-.42l5.15,3.48a.54.54,0,0,0,.84-.48l-.34-6.18a.53.53,0,0,1,.78-.51l5.52,2.86a.54.54,0,0,0,.78-.57l-1.05-6.1a.55.55,0,0,1,.73-.6l5.8,2.22a.54.54,0,0,0,.71-.66l-1.74-5.94a.55.55,0,0,1,.66-.68l6,1.54a.54.54,0,0,0,.63-.73l-2.41-5.71a.54.54,0,0,1,.58-.74l6.15.84a.53.53,0,0,0,.54-.79l-3-5.41a.53.53,0,0,1,.48-.8l6.21.14a.54.54,0,0,0,.45-.86l-3.64-5a.54.54,0,0,1,.39-.85l6.19-.57a.54.54,0,0,0,.35-.9l-4.18-4.57a.53.53,0,0,1,.29-.89l6.08-1.28a.54.54,0,0,0,.24-.93l-4.68-4.07a.54.54,0,0,1,.18-.91l5.9-2a.54.54,0,0,0,.14-1l-5.11-3.5a.54.54,0,0,1,.08-.93l5.64-2.63A.54.54,0,0,0,172.58,92.66ZM137.14,77.33,99.45,115a6.14,6.14,0,0,1-8.69,0L72.89,97.16a6.14,6.14,0,0,1,8.69-8.69L95.1,102l33.35-33.35a6.14,6.14,0,0,1,8.69,8.69Z" fill="#00fff8"/></g></g></svg>