<svg xmlns="http://www.w3.org/2000/svg" viewBox="0 0 89.16 111.57"><title>Asset 5</title><g id="Layer_2" data-name="Layer 2"><g id="Layer_1-2" data-name="Layer 1"><path d="M14.17,10.76a4.2,4.2,0,1,0,4,5.6H29.57a1.41,1.41,0,0,0,0-2.82H18.12A4.2,4.2,0,0,0,14.17,10.76Z"/><path d="M89,50.43h0a11.49,11.49,0,0,0-11.26-9.26h-47a11.41,11.41,0,0,0-7.86,3.13V20.94a2.22,2.22,0,0,0-4.43,0V50.43h-14v-46h14V8a2.22,2.22,0,0,0,4.43,0V4.31A4.31,4.31,0,0,0,18.53,0H4.31A4.31,4.31,0,0,0,0,4.31V52.65a2.22,2.22,0,0,0,.53,1.44,3.07,3.07,0,0,0,.2.5l17.6,33.62a4.53,4.53,0,0,1,.06,4.06l-9.45,19.3H66.86l-1.71-3.25c-.07-.13-7-13.46-.39-20a37.22,37.22,0,0,1,7-5c7.81-4.71,17.45-10.54,17.36-28.43h0V52.65A11.14,11.14,0,0,0,89,50.81ZM30.7,45.6h47a7.06,7.06,0,0,1,6.69,4.83H24A7.06,7.06,0,0,1,30.7,45.6ZM69.5,79.51a40,40,0,0,0-7.88,5.63c-6.55,6.55-3.85,16.8-1.84,22H16l6.33-12.92a8.45,8.45,0,0,0,.57-1.52H39.58a2.22,2.22,0,1,0,0-4.43H23a8.49,8.49,0,0,0-.77-2.11L5.88,54.87H84.73C84.82,70.26,77,75,69.5,79.51Z"/></g></g></svg>