<svg xmlns="http://www.w3.org/2000/svg" viewBox="0 0 68.31 68.29"><title>Asset 16</title><g id="Layer_2" data-name="Layer 2"><g id="Layer_1-2" data-name="Layer 1"><path d="M47.58,53c-1.15-2.3-2.3-4.59-3.44-6.9-.24-.5-.55-.9-1.15-.9a1.25,1.25,0,0,0-1.16.87c-1.15,2.33-2.31,4.64-3.48,7a8.48,8.48,0,0,0-.88,4.53,5.52,5.52,0,0,0,7,5c2.43-.67,4-2.93,4-5.88A7.54,7.54,0,0,0,47.58,53Zm-1.49,5.18a3.18,3.18,0,0,1-3.57,2.34,3.32,3.32,0,0,1-2.86-3.28,7,7,0,0,1,.79-3.5c.83-1.62,1.64-3.26,2.53-5,1,1.93,1.89,3.72,2.76,5.55A5.35,5.35,0,0,1,46.09,58.21Z" fill="#7e7e7e"/><path d="M62.22,55.38c-1.25-2.05-2.53-4.07-3.81-6.1-.65-1-1.57-1-2.21,0q-1.92,3-3.81,6.11a10.9,10.9,0,0,0-1.7,5.91,6.65,6.65,0,0,0,5.68,7A6.57,6.57,0,0,0,63.72,63,10.24,10.24,0,0,0,62.22,55.38Zm-.66,7.19a4.37,4.37,0,0,1-8.66-.89,9.15,9.15,0,0,1,1.48-5.35c1-1.52,1.91-3.06,2.92-4.68,1.13,1.82,2.24,3.51,3.25,5.27A7.83,7.83,0,0,1,61.56,62.57Z" fill="#7e7e7e"/><path d="M68.3,41.34c0-1.4-.24-1.67-1.62-1.66-.46,0-.57-.12-.57-.58,0-2.28,0-4.56,0-6.85a13.89,13.89,0,0,0-1.24-6.06,14.09,14.09,0,0,0-12.52-8.53c-.51,0-.64-.2-.58-.65,0-.12,0-.25,0-.37,0-3.67.38-3.44-3.47-3.43-.86,0-1.73,0-2.6,0-.42,0-.56-.09-.54-.53,0-.76,0-1.53,0-2.3a2,2,0,0,1,1.56-1.56h6.1a1.36,1.36,0,0,1,.82.26,4.36,4.36,0,0,0,5.85-.67,4.41,4.41,0,0,0,0-5.84,4.33,4.33,0,0,0-5.8-.64,1.32,1.32,0,0,1-.81.27c-2,0-4.07,0-6.11,0a1,1,0,0,1-.83-.37,5.37,5.37,0,0,0-8-.06,1.25,1.25,0,0,1-1,.43c-2,0-3.92,0-5.88,0a1.61,1.61,0,0,1-1-.3,4.32,4.32,0,0,0-5.78.71,4.38,4.38,0,0,0,0,5.78,4.33,4.33,0,0,0,5.84.7,1.34,1.34,0,0,1,.81-.27h6.18a.79.79,0,0,1,.61.18,2.15,2.15,0,0,1,.92,2.09,6.75,6.75,0,0,0,0,1.49c0,.48-.11.65-.62.63-1.53,0-3.07,0-4.61,0-1,0-1.4.39-1.41,1.39a19.46,19.46,0,0,0,0,2.16c.07.71-.14.92-.87.88a14.36,14.36,0,0,0-7.71,1.49,14,14,0,0,0-7.93,12.69c-.12,4,0,8,0,12,0,1-.38,1.35-1.34,1.36-.8,0-1.59,0-2.38,0-.59,0-.69-.17-.68-.7,0-1.2-.34-1.53-1.56-1.53H1.57C0,43,.05,43,0,44.48c0,.63.21.71.75.7,2.5,0,5,0,7.52,0,.45,0,.58.11.58.58q0,7.69,0,15.41c0,.47-.15.56-.59.56-2.23,0-4.47,0-6.7,0C0,61.7.05,61.7,0,63.22c0,.63.22.71.76.71,2.85,0,5.71,0,8.56,0,1.4,0,1.7-.27,1.7-1.69,0-.42.12-.54.54-.53,2,0,4,0,6,0a13.77,13.77,0,0,0,3.39-.38,14.28,14.28,0,0,0,11-14c0-3.92,0-7.84,0-11.76,0-1,.38-1.41,1.31-1.41H47.18c.91,0,1.28.4,1.29,1.33,0,1.14,0,2.29,0,3.43,0,.61-.13.79-.76.76-1.09,0-1.45.35-1.46,1.47v3.57c0,1.22.33,1.54,1.55,1.54,3.15,0,6.3,0,9.45,0s6.46,0,9.68,0c1,0,1.34-.35,1.35-1.34C68.31,43.72,68.31,42.53,68.3,41.34Zm-12-38a2.23,2.23,0,0,1,2.15,2.21,2.22,2.22,0,0,1-4.43,0A2.22,2.22,0,0,1,56.26,3.32Zm-8.9,1.82c-.22-.75.16-.77.73-.75,1.11,0,2.22,0,3.34,0,.4,0,.53.1.43.5a2.9,2.9,0,0,0-.07.66c0,1.06,0,1.06-1,1.06H47.27A3.57,3.57,0,0,0,47.36,5.14ZM27.54,7.7a2.19,2.19,0,1,1,2.2-2.14A2.19,2.19,0,0,1,27.54,7.7Zm8.81-1.2c-.32.23-.89.1-1.36.11H32.31c-.33,0-.54,0-.42-.46A3.4,3.4,0,0,0,31.8,4.4h4.28c.32,0,.38.13.33.41a3.17,3.17,0,0,0,0,.44C36.39,5.68,36.56,6.36,36.35,6.5Zm2.23-1a3.3,3.3,0,1,1,6.6.08,3.3,3.3,0,1,1-6.6-.08ZM41.16,11A9.1,9.1,0,0,1,42.9,11c.13.05.06.69.09,1.06,0,1.12,0,1.12-1.29,1.12-.94,0-1,0-.92-1.4C40.79,11.54,40.4,10.89,41.16,11Zm-14,43.88a11.79,11.79,0,0,1-9.25,4.62c-2.1.05-4.21,0-6.32,0-.47,0-.57-.14-.57-.59,0-1.83,0-3.66,0-5.5s0-3.62,0-5.43c0-.49.14-.62.62-.6.84,0,1.69,0,2.53,0a3.23,3.23,0,0,0,3.07-1.84.65.65,0,0,1,.7-.38h11.3c.22,0,.49-.12.51.31C29.92,48.9,29.38,52.11,27.16,54.85Zm-9.53-18c0-.39.1-.5.49-.5,3.7,0,7.39,0,11.09,0,.41,0,.55.1.55.53,0,1.83,0,3.67,0,5.51,0,.46-.12.58-.58.57-1.84,0-3.67,0-5.51,0S20,43,18.16,43c-.41,0-.54-.1-.53-.53Q17.66,39.65,17.63,36.86ZM35.72,32c-.8,0-1.59,0-2.39,0a3.27,3.27,0,0,0-3.2,1.87c-.17.37-.41.35-.71.35H23.76c-1.83,0-3.67,0-5.51,0-.44,0-.61-.06-.63-.58a13.17,13.17,0,0,1,2.11-8.42,11.85,11.85,0,0,1,9.87-5.31c2.06,0,4.12,0,6.18,0,.49,0,.61.14.61.62,0,3.62,0,7.25,0,10.87C36.39,31.87,36.21,32,35.72,32Zm8.9,0c-1.84,0-3.68,0-5.51,0-.42,0-.54-.11-.54-.53q0-5.55,0-11.09c0-.41.13-.5.51-.49,1.86,0,3.72,0,5.58,0,.42,0,.53.12.53.54,0,1.86,0,3.72,0,5.58s0,3.62,0,5.43C45.2,31.85,45.07,32,44.62,32ZM41.85,17.63c-2.37,0-4.75,0-7.13,0-.46,0-.57-.11-.57-.57,0-1.66,0-1.66,1.64-1.66,4.36,0,8.72,0,13.08,0,.58,0,.76.14.74.73,0,1.5,0,1.5-1.51,1.5Zm6,14.38c-.4-.07-.51-.21-.51-.61,0-3.67,0-7.34,0-11,0-.25-.12-.57.35-.55,2.22.09,4.46-.21,6.67.29a12.14,12.14,0,0,1,9.49,11.56c0,1,0,1.94,0,2.9,0,.51-.11.68-.65.67-2,0-4,0-6,0h-6c-.38,0-.58,0-.67-.5A3.15,3.15,0,0,0,47.89,32Zm16,6.14c0,1.51,0,1.51-1.56,1.51H57.25c-2,0-4,0-5.94,0-.45,0-.64-.05-.64-.58,0-1.64,0-1.64,1.66-1.64,3.62,0,7.23,0,10.85,0C63.72,37.44,64,37.51,63.94,38.15Zm2.2,4.51c-.06,1.42,0,1.42-1.46,1.42H57.31c-2.72,0-5.45,0-8.18,0-.51,0-.68-.12-.67-.65,0-1.56,0-1.56,1.52-1.56,5.11,0,10.22,0,15.33,0C65.93,41.86,66.17,42,66.14,42.66Z" fill="#7e7e7e"/><path d="M68.3,41.34c0-1.4-.24-1.67-1.62-1.66-.46,0-.57-.12-.57-.58,0-2.28,0-4.56,0-6.85a13.89,13.89,0,0,0-1.24-6.06,14.09,14.09,0,0,0-12.52-8.53c-.51,0-.64-.2-.58-.65,0-.12,0-.25,0-.37,0-3.67.38-3.44-3.47-3.43-.86,0-1.73,0-2.6,0-.42,0-.56-.09-.54-.53,0-.76,0-1.53,0-2.3a2,2,0,0,1,1.56-1.56h6.1a1.36,1.36,0,0,1,.82.26,4.36,4.36,0,0,0,5.85-.67,4.41,4.41,0,0,0,0-5.84,4.33,4.33,0,0,0-5.8-.64,1.32,1.32,0,0,1-.81.27c-2,0-4.07,0-6.11,0a1,1,0,0,1-.83-.37,5.37,5.37,0,0,0-8-.06,1.25,1.25,0,0,1-1,.43c-2,0-3.92,0-5.88,0a1.61,1.61,0,0,1-1-.3,4.32,4.32,0,0,0-5.78.71,4.38,4.38,0,0,0,0,5.78,4.33,4.33,0,0,0,5.84.7,1.34,1.34,0,0,1,.81-.27h6.18a.79.79,0,0,1,.61.18,2.15,2.15,0,0,1,.92,2.09,6.75,6.75,0,0,0,0,1.49c0,.48-.11.65-.62.63-1.53,0-3.07,0-4.61,0-1,0-1.4.39-1.41,1.39a19.46,19.46,0,0,0,0,2.16c.07.71-.14.92-.87.88a14.36,14.36,0,0,0-7.71,1.49,14,14,0,0,0-7.93,12.69c-.12,4,0,8,0,12,0,1-.38,1.35-1.34,1.36-.8,0-1.59,0-2.38,0-.59,0-.69-.17-.68-.7,0-1.2-.34-1.53-1.56-1.53H1.57C0,43,.05,43,0,44.48c0,.63.21.71.75.7,2.5,0,5,0,7.52,0,.45,0,.58.11.58.58q0,7.69,0,15.41c0,.47-.15.56-.59.56-2.23,0-4.47,0-6.7,0C0,61.7.05,61.7,0,63.22c0,.63.22.71.76.71,2.85,0,5.71,0,8.56,0,1.4,0,1.7-.27,1.7-1.69,0-.42.12-.54.54-.53,2,0,4,0,6,0a13.77,13.77,0,0,0,3.39-.38,14.28,14.28,0,0,0,11-14c0-3.92,0-7.84,0-11.76,0-1,.38-1.41,1.31-1.41H47.18c.91,0,1.28.4,1.29,1.33,0,1.14,0,2.29,0,3.43,0,.61-.13.79-.76.76-1.09,0-1.45.35-1.46,1.47v3.57c0,1.22.33,1.54,1.55,1.54,3.15,0,6.3,0,9.45,0s6.46,0,9.68,0c1,0,1.34-.35,1.35-1.34C68.31,43.72,68.31,42.53,68.3,41.34Zm-12-38a2.23,2.23,0,0,1,2.15,2.21,2.22,2.22,0,0,1-4.43,0A2.22,2.22,0,0,1,56.26,3.32Zm-8.9,1.82c-.22-.75.16-.77.73-.75,1.11,0,2.22,0,3.34,0,.4,0,.53.1.43.5a2.9,2.9,0,0,0-.07.66c0,1.06,0,1.06-1,1.06H47.27A3.57,3.57,0,0,0,47.36,5.14ZM27.54,7.7a2.19,2.19,0,1,1,2.2-2.14A2.19,2.19,0,0,1,27.54,7.7Zm8.81-1.2c-.32.23-.89.1-1.36.11H32.31c-.33,0-.54,0-.42-.46A3.4,3.4,0,0,0,31.8,4.4h4.28c.32,0,.38.13.33.41a3.17,3.17,0,0,0,0,.44C36.39,5.68,36.56,6.36,36.35,6.5Zm2.23-1a3.3,3.3,0,1,1,6.6.08,3.3,3.3,0,1,1-6.6-.08ZM41.16,11A9.1,9.1,0,0,1,42.9,11c.13.05.06.69.09,1.06,0,1.12,0,1.12-1.29,1.12-.94,0-1,0-.92-1.4C40.79,11.54,40.4,10.89,41.16,11Zm-14,43.88a11.79,11.79,0,0,1-9.25,4.62c-2.1.05-4.21,0-6.32,0-.47,0-.57-.14-.57-.59,0-1.83,0-3.66,0-5.5s0-3.62,0-5.43c0-.49.14-.62.62-.6.84,0,1.69,0,2.53,0a3.23,3.23,0,0,0,3.07-1.84.65.65,0,0,1,.7-.38h11.3c.22,0,.49-.12.51.31C29.92,48.9,29.38,52.11,27.16,54.85Zm-9.53-18c0-.39.1-.5.49-.5,3.7,0,7.39,0,11.09,0,.41,0,.55.1.55.53,0,1.83,0,3.67,0,5.51,0,.46-.12.58-.58.57-1.84,0-3.67,0-5.51,0S20,43,18.16,43c-.41,0-.54-.1-.53-.53Q17.66,39.65,17.63,36.86ZM35.72,32c-.8,0-1.59,0-2.39,0a3.27,3.27,0,0,0-3.2,1.87c-.17.37-.41.35-.71.35H23.76c-1.83,0-3.67,0-5.51,0-.44,0-.61-.06-.63-.58a13.17,13.17,0,0,1,2.11-8.42,11.85,11.85,0,0,1,9.87-5.31c2.06,0,4.12,0,6.18,0,.49,0,.61.14.61.62,0,3.62,0,7.25,0,10.87C36.39,31.87,36.21,32,35.72,32Zm8.9,0c-1.84,0-3.68,0-5.51,0-.42,0-.54-.11-.54-.53q0-5.55,0-11.09c0-.41.13-.5.51-.49,1.86,0,3.72,0,5.58,0,.42,0,.53.12.53.54,0,1.86,0,3.72,0,5.58s0,3.62,0,5.43C45.2,31.85,45.07,32,44.62,32ZM41.85,17.63c-2.37,0-4.75,0-7.13,0-.46,0-.57-.11-.57-.57,0-1.66,0-1.66,1.64-1.66,4.36,0,8.72,0,13.08,0,.58,0,.76.14.74.73,0,1.5,0,1.5-1.51,1.5Zm6,14.38c-.4-.07-.51-.21-.51-.61,0-3.67,0-7.34,0-11,0-.25-.12-.57.35-.55,2.22.09,4.46-.21,6.67.29a12.14,12.14,0,0,1,9.49,11.56c0,1,0,1.94,0,2.9,0,.51-.11.68-.65.67-2,0-4,0-6,0h-6c-.38,0-.58,0-.67-.5A3.15,3.15,0,0,0,47.89,32Zm16,6.14c0,1.51,0,1.51-1.56,1.51H57.25c-2,0-4,0-5.94,0-.45,0-.64-.05-.64-.58,0-1.64,0-1.64,1.66-1.64,3.62,0,7.23,0,10.85,0C63.72,37.44,64,37.51,63.94,38.15Zm2.2,4.51c-.06,1.42,0,1.42-1.46,1.42H57.31c-2.72,0-5.45,0-8.18,0-.51,0-.68-.12-.67-.65,0-1.56,0-1.56,1.52-1.56,5.11,0,10.22,0,15.33,0C65.93,41.86,66.17,42,66.14,42.66Z" fill="#7e7e7e"/><path d="M62.22,55.38c-1.25-2.05-2.53-4.07-3.81-6.1-.65-1-1.57-1-2.21,0q-1.92,3-3.81,6.11a10.9,10.9,0,0,0-1.7,5.91,6.65,6.65,0,0,0,5.68,7A6.57,6.57,0,0,0,63.72,63,10.24,10.24,0,0,0,62.22,55.38Zm-.66,7.19a4.37,4.37,0,0,1-8.66-.89,9.15,9.15,0,0,1,1.48-5.35c1-1.52,1.91-3.06,2.92-4.68,1.13,1.82,2.24,3.51,3.25,5.27A7.83,7.83,0,0,1,61.56,62.57Z" fill="#7e7e7e"/><path d="M47.58,53c-1.15-2.3-2.3-4.59-3.44-6.9-.24-.5-.55-.9-1.15-.9a1.25,1.25,0,0,0-1.16.87c-1.15,2.33-2.31,4.64-3.48,7a8.48,8.48,0,0,0-.88,4.53,5.52,5.52,0,0,0,7,5c2.43-.67,4-2.93,4-5.88A7.54,7.54,0,0,0,47.58,53Zm-1.49,5.18a3.18,3.18,0,0,1-3.57,2.34,3.32,3.32,0,0,1-2.86-3.28,7,7,0,0,1,.79-3.5c.83-1.62,1.64-3.26,2.53-5,1,1.93,1.89,3.72,2.76,5.55A5.35,5.35,0,0,1,46.09,58.21Z" fill="#7e7e7e"/></g></g></svg>