<svg xmlns="http://www.w3.org/2000/svg" viewBox="0 0 114.6 79.93"><title>Asset 18</title><g id="Layer_2" data-name="Layer 2"><g id="Layer_1-2" data-name="Layer 1"><path d="M92.6,50.85v0Z" fill="#7e7e7e"/><path d="M114.58,54.43a2.18,2.18,0,0,0-2.27-2.28q-4.47,0-9,0a2.18,2.18,0,0,0-2.27,2.19q-.06,3.64,0,7.31a2.2,2.2,0,0,0,2.16,2.2c.33,0,.67,0,1,0a.66.66,0,0,1,.7.59c0,.44,0,.89,0,1.34-.64-.26-1.22-.54-1.83-.75-2.6-.89-5.21-1.76-7.81-2.64a2.33,2.33,0,0,1-.68-.31.79.79,0,0,1,0-1.41,10.27,10.27,0,0,0,4.39-6.4c.12-.52.18-1,.27-1.56a2.71,2.71,0,0,0,2.51-2.52c.06-1.37-.74-2.27-2.4-2.76-.27-2.26-.52-4.5-.82-6.73a1,1,0,0,1,.35-1,6,6,0,0,0,1.29-7c-.25-.51-.62-.69-1-.51s-.55.61-.32,1.14a4.52,4.52,0,0,1-1.27,5.55A1.6,1.6,0,0,0,97,40.41c.13.87.25,1.75.36,2.63s.17,1.47.26,2.28a69.24,69.24,0,0,0-17.44,0c.11-.87.2-1.63.3-2.39s.18-1.53.3-2.29A1.62,1.62,0,0,0,80.1,39a4.47,4.47,0,0,1-1.42-5.46,4.52,4.52,0,0,1,5.11-2.59,1.63,1.63,0,0,0,1.59-.48,4.49,4.49,0,0,1,6.87,0,1.57,1.57,0,0,0,1.55.48,4.63,4.63,0,0,1,2.75.23c.55.22,1,.09,1.14-.33s0-.83-.61-1.07a5.88,5.88,0,0,0-3.29-.35.61.61,0,0,1-.65-.21,5.77,5.77,0,0,0-2.76-1.63l-.76-.21H88s-.05.06-.07.06a6.18,6.18,0,0,0-3.57,1.88.75.75,0,0,1-.48.1,12.13,12.13,0,0,0-2.09,0A6,6,0,0,0,79,40a.62.62,0,0,1,.26.63c-.15,1.09-.29,2.18-.41,3.27s-.26,2.35-.39,3.53A2.64,2.64,0,0,0,76.08,50c0,1.43.77,2.31,2.52,2.76a6.38,6.38,0,0,0,.1.73c.19.79.38,1.58.62,2.36a.7.7,0,0,0,.94.44.69.69,0,0,0,.45-.92,13.17,13.17,0,0,1-.62-5.18c0-1.1,0-2.2,0-3.28,2.94-.82,15.35-.8,17.66,0,0,2,.07,4,0,6a7.88,7.88,0,0,1-.67,2.69A8.84,8.84,0,0,1,82.6,58.23c-.48-.49-.89-.55-1.25-.2s-.32.8.2,1.25A27.4,27.4,0,0,0,83.72,61c.25.18.32.32.21.61a1.43,1.43,0,0,1-1,.82c-2.78.94-5.58,1.82-8.33,2.83a6.15,6.15,0,0,0-4.3,5.67c-.15,2.3,0,4.61,0,6.91a.73.73,0,0,0,.69.82.77.77,0,0,0,.8-.79c0-.15,0-.3,0-.45,0-2,0-4.07,0-6.11a4.91,4.91,0,0,1,3.29-4.63c2.31-.82,4.64-1.58,7-2.35a.52.52,0,0,1,.41,0l3.41,2.63c-1.47,1.28-1.9,2-2.09,3.32a4.64,4.64,0,0,0,0,.65c0,2.22,0,4.44,0,6.66a2.09,2.09,0,0,0,0,.25.75.75,0,1,0,1.5,0V71A3,3,0,0,1,87.08,68c2.67-1.24,5.35-2.49,8-3.75a1.13,1.13,0,0,1,1-.05c2.13.73,4.26,1.43,6.39,2.17a10.37,10.37,0,0,1,1.85.86c.78.48.88.89.6,1.81A1.92,1.92,0,0,0,103.06,71q0,2.88,0,5.76A1.88,1.88,0,0,0,105,78.63c1.41,0,2.81,0,4.21,0a3.44,3.44,0,0,0,3.36-3.16c.07-1,.05-2,0-3A3.41,3.41,0,0,0,111,69.62a.61.61,0,0,1-.27-.41c0-1.52,0-3,0-4.56,0-.52.3-.76.84-.78.28,0,.57,0,.85,0a2.19,2.19,0,0,0,2.2-2.3Q114.61,58,114.58,54.43ZM99.36,49a1.08,1.08,0,0,1,0,2.15ZM78.59,51.16a1,1,0,0,1-1-1.13,1,1,0,0,1,1-1,1.94,1.94,0,0,1,0,.24ZM93.26,63.49c-1.82.86-3.65,1.7-5.47,2.57a.57.57,0,0,1-.71,0c-1-.8-2-1.58-2.94-2.3l1.46-1.85a10.27,10.27,0,0,0,7-.12c.32.52.62,1,.95,1.58C93.5,63.36,93.39,63.43,93.26,63.49Zm17.82,9a26.15,26.15,0,0,1,0,2.8,1.94,1.94,0,0,1-2,1.87c-1.31,0-2.63,0-4,0-.46,0-.61-.22-.61-.65,0-.88,0-1.76,0-2.65s0-1.76,0-2.65c0-.42.18-.6.61-.59,1.31,0,2.63,0,4,0A1.9,1.9,0,0,1,111.08,72.46Zm2-11.16c0,.84-.22,1.05-1.08,1.07a4.71,4.71,0,0,0-1.19.09,2.23,2.23,0,0,0-1.64,2.25c0,1.27,0,2.53,0,3.8v.56h-2.7v-.56c0-1.27,0-2.53,0-3.8a2.22,2.22,0,0,0-2.36-2.35c-1.5,0-1.54-.06-1.54-1.56V54.7c0-.82.22-1.05,1-1.05h8.46c.82,0,1,.21,1,1.05Z" fill="#7e7e7e"/><path d="M79.26,77.78a.76.76,0,0,1-.78.85c-.43,0-.7-.33-.71-.85,0-.72,0-1.43,0-2.15s0-1.43,0-2.15c0-.52.28-.84.71-.85a.76.76,0,0,1,.78.85C79.27,74.91,79.27,76.35,79.26,77.78Z" fill="#7e7e7e"/><path d="M94,37.56a.65.65,0,0,1,0,.2c-.49,1.18-1,2.37-1.49,3.54-.1.23-.41.37-.52.47-.66,0-1-.46-.86-.93.48-1.27,1-2.53,1.56-3.78a.65.65,0,0,1,.89-.33A.69.69,0,0,1,94,37.56Z" fill="#7e7e7e"/><path d="M86.08,41.72a.72.72,0,0,1-1-.41q-.78-1.79-1.5-3.6c-.2-.52.15-1,.84-1,.12.1.42.24.52.48.54,1.18,1,2.38,1.51,3.59A.72.72,0,0,1,86.08,41.72Z" fill="#7e7e7e"/><path d="M89.56,40.94a.75.75,0,0,1-.74.83c-.45,0-.74-.31-.75-.86s0-1.13,0-1.7,0-1.13,0-1.7a.75.75,0,1,1,1.49,0Q89.57,39.22,89.56,40.94Z" fill="#7e7e7e"/><path d="M90.65,56.25c-.53.26-1.1.44-1.67.66-.61-.23-1.18-.4-1.72-.65A.74.74,0,1,1,88,55a1.74,1.74,0,0,0,1.93,0,.71.71,0,0,1,1,.25A.72.72,0,0,1,90.65,56.25Z" fill="#7e7e7e"/><path d="M85.31,51.65a.73.73,0,0,1-.73.73.69.69,0,0,1-.75-.65,11.23,11.23,0,0,1,0-1.74.66.66,0,0,1,.76-.63.68.68,0,0,1,.7.69,8,8,0,0,1,0,.85h0C85.31,51.15,85.32,51.4,85.31,51.65Z" fill="#7e7e7e"/><path d="M94.05,51.78a.66.66,0,0,1-.78.6.69.69,0,0,1-.67-.68c0-.21,0-.41,0-.62V50.6a5,5,0,0,1,0-.55.68.68,0,0,1,.7-.69.66.66,0,0,1,.76.63A11.89,11.89,0,0,1,94.05,51.78Z" fill="#7e7e7e"/><path d="M89.13,71.35a.75.75,0,0,1-.74.77.75.75,0,1,1,0-1.49A.74.74,0,0,1,89.13,71.35Z" fill="#7e7e7e"/><path d="M92.92,72.12a.77.77,0,0,1-.77-.75.78.78,0,0,1,.73-.75.76.76,0,0,1,.76.71A.74.74,0,0,1,92.92,72.12Z" fill="#7e7e7e"/><path d="M89.13,75.92a.75.75,0,0,1-.76.71.75.75,0,1,1,0-1.5A.74.74,0,0,1,89.13,75.92Z" fill="#7e7e7e"/><path d="M93.64,75.9a.75.75,0,0,1-.73.73.77.77,0,0,1-.76-.77.77.77,0,0,1,.79-.73A.76.76,0,0,1,93.64,75.9Z" fill="#7e7e7e"/><path d="M105.57,58c0,.4,0,.8,0,1.21s0,.52,0,.78c0,.53-.29.83-.74.83a.73.73,0,0,1-.75-.81q0-2,0-4.05a.73.73,0,0,1,.74-.82c.46,0,.74.3.75.86s0,.93,0,1.4Z" fill="#7e7e7e"/><path d="M108.57,60a.74.74,0,1,1-1.48,0q0-2.07,0-4.14a.74.74,0,1,1,1.48,0c0,.7,0,1.4,0,2.1S108.59,59.36,108.57,60Z" fill="#7e7e7e"/><path d="M111.58,58.05c0,.65,0,1.3,0,2s-.28.83-.72.84-.77-.3-.77-.85q0-2,0-4a.74.74,0,0,1,.78-.84c.44,0,.7.31.71.84S111.58,57.37,111.58,58.05Z" fill="#7e7e7e"/><path d="M43.51,48.83a2.18,2.18,0,0,1-.44,0c-4.92-.76-8.26-2.22-10.8-4.72-3-2.94-4.7-7.17-5.2-12.92L26.27,30a2.61,2.61,0,0,1-.6-1.69V23.54h2.42v4.81a.24.24,0,0,0,0,.13l.09.1,1,1.43a1.22,1.22,0,0,1,.22.61c.41,5.31,1.89,9.15,4.51,11.72,2.16,2.13,5.08,3.38,9.48,4.06h.1a15.19,15.19,0,0,0,9.57-5c2.26-2.65,3.63-6.28,4.09-10.77a1.2,1.2,0,0,1,.18-.51l1-1.62a.34.34,0,0,0,0-.12.49.49,0,0,1,0-.12l0-4.78,2.42,0,0,4.73a2.63,2.63,0,0,1-.37,1.49l0,0-.86,1.41A21.55,21.55,0,0,1,55,42.93a17.63,17.63,0,0,1-11,5.86A1.93,1.93,0,0,1,43.51,48.83Z" fill="#7e7e7e"/><path d="M63.42,22.58H22a1.27,1.27,0,0,1-.34,0H20.28a1.21,1.21,0,0,1-1.21-1.21V18.47a1.21,1.21,0,0,1,1.21-1.21h1A22,22,0,0,1,34.47,1.62a1.16,1.16,0,0,1,1,0,1.22,1.22,0,0,1,.65.69l1.74,4.9L38,1.51A1.22,1.22,0,0,1,39,.35,22,22,0,0,1,42.42,0a1,1,0,0,1,.3,0,22,22,0,0,1,4.47.45,1.22,1.22,0,0,1,1,1.21L48,7.33l2-4.81a1.24,1.24,0,0,1,.67-.66,1.21,1.21,0,0,1,.95,0A22,22,0,0,1,64.14,17.26h1.4a1.21,1.21,0,0,1,1.21,1.21v2.86a1.21,1.21,0,0,1-1.21,1.21H63.75A1.24,1.24,0,0,1,63.42,22.58ZM22.34,20.16H63.08a1.27,1.27,0,0,1,.34,0h.91v-.44H63.14a1.21,1.21,0,0,1-1.2-1,19.47,19.47,0,0,0-10.18-14l-3.95,9.66a1.21,1.21,0,0,1-2.33-.49l.23-11.15A20.08,20.08,0,0,0,43,2.42a.92.92,0,0,1-.29,0,18.21,18.21,0,0,0-2.33.14L40,13.69a1.2,1.2,0,0,1-1,1.16,1.22,1.22,0,0,1-1.33-.79L34.22,4.38A19.6,19.6,0,0,0,23.48,18.67a1.2,1.2,0,0,1-1.19,1h-.8v.44H22A1.19,1.19,0,0,1,22.34,20.16Z" fill="#7e7e7e"/><path d="M45,62H41.56a1.43,1.43,0,0,1-1.42-1.42V57.14a1.43,1.43,0,0,1,1.42-1.42H45a1.42,1.42,0,0,1,1.42,1.42v3.41A1.42,1.42,0,0,1,45,62Zm-3.41-5a.15.15,0,0,0-.15.15v3.41a.15.15,0,0,0,.15.15H45a.15.15,0,0,0,.15-.15V57.14A.15.15,0,0,0,45,57Z" fill="#7e7e7e"/><path d="M45,73.49H41.56a1.43,1.43,0,0,1-1.42-1.42V68.66a1.43,1.43,0,0,1,1.42-1.42H45a1.42,1.42,0,0,1,1.42,1.42v3.41A1.42,1.42,0,0,1,45,73.49Zm-3.41-5a.15.15,0,0,0-.15.15v3.41a.15.15,0,0,0,.15.15H45a.15.15,0,0,0,.15-.15V68.66a.15.15,0,0,0-.15-.15Z" fill="#7e7e7e"/><path d="M23,79.86H1.21A1.21,1.21,0,0,1,.13,78.1c.64-2.29,1.16-4.4,1.67-6.43,1.52-6.1,2.72-10.91,5.59-14.5,3.05-3.81,7.83-6,15.49-7.09a1.24,1.24,0,0,1,1.08.4,1.22,1.22,0,0,1,.26,1.13.74.74,0,0,0,0,.19V78.64A1.22,1.22,0,0,1,23,79.86ZM2.82,77.43h19V52.71c-6.16,1-10,2.91-12.49,6S5.6,66.45,4.15,72.25C3.75,73.84,3.32,75.59,2.82,77.43Z" fill="#7e7e7e"/><path d="M84.6,79.86H62.84a1.22,1.22,0,0,1-1.21-1.22V51.8a.74.74,0,0,0,0-.19,1.22,1.22,0,0,1,.25-1.13,1.25,1.25,0,0,1,1.08-.4c7.67,1.09,12.46,3.28,15.51,7.1,2.88,3.61,4.09,8.43,5.61,14.54.52,2.08,1.06,4.24,1.72,6.6a1.21,1.21,0,0,1-1.17,1.54ZM64.05,77.43H83c-.49-1.8-.91-3.48-1.32-5.12-1.45-5.82-2.6-10.42-5.15-13.61s-6.34-4.94-12.5-6Z" fill="#7e7e7e"/><path d="M57.6,52.29V77.64H28.68V52.29H57.6m.83-2.3H27.86a1.47,1.47,0,0,0-1.47,1.47v27a1.47,1.47,0,0,0,1.47,1.47H58.43a1.47,1.47,0,0,0,1.47-1.47v-27A1.47,1.47,0,0,0,58.43,50Z" fill="#7e7e7e"/></g></g></svg>